<!DOCTYPE svg PUBLIC "-//W3C//DTD SVG 20010904//EN" "http://www.w3.org/TR/2001/REC-SVG-20010904/DTD/svg10.dtd">
<svg version="1.0" xmlns="http://www.w3.org/2000/svg" width="544px" height="540px" viewBox="0 0 5440 5400" preserveAspectRatio="xMidYMid meet">
<g id="layer1" fill="#cfccdb" stroke="none">
 <path d="M620 3699 c0 -5 5 -7 10 -4 6 3 10 8 10 11 0 2 -4 4 -10 4 -5 0 -10 -5 -10 -11z"/>
 <path d="M783 3693 c4 -3 10 -3 14 0 3 4 0 7 -7 7 -7 0 -10 -3 -7 -7z"/>
 <path d="M521 3644 c-12 -14 -21 -27 -19 -30 3 -2 17 10 33 26 16 17 25 30 19 29 -5 0 -20 -11 -33 -25z"/>
 <path d="M910 3640 c0 -7 3 -10 7 -7 3 4 3 10 0 14 -4 3 -7 0 -7 -7z"/>
 <path d="M970 3595 c19 -19 38 -35 42 -35 5 0 -7 16 -26 35 -20 19 -39 35 -43 35 -4 0 8 -16 27 -35z"/>
 <path d="M480 3579 c0 -5 5 -7 10 -4 6 3 10 8 10 11 0 2 -4 4 -10 4 -5 0 -10 -5 -10 -11z"/>
 <path d="M1023 3543 c4 -3 10 -3 14 0 3 4 0 7 -7 7 -7 0 -10 -3 -7 -7z"/>
 <path d="M886 3464 c-3 -9 -2 -22 2 -31 6 -10 9 -5 9 16 0 35 -2 38 -11 15z"/>
 <path d="M1137 3399 c4 -13 8 -18 11 -10 2 7 -1 18 -6 23 -8 8 -9 4 -5 -13z"/>
 <path d="M490 3390 c0 -7 3 -10 7 -7 3 4 3 10 0 14 -4 3 -7 0 -7 -7z"/>
 <path d="M905 3330 c3 -5 8 -10 11 -10 2 0 4 5 4 10 0 6 -5 10 -11 10 -5 0 -7 -4 -4 -10z"/>
 <path d="M1123 3313 c4 -3 10 -3 14 0 3 4 0 7 -7 7 -7 0 -10 -3 -7 -7z"/>
 <path d="M1195 3310 c3 -5 8 -10 11 -10 2 0 4 5 4 10 0 6 -5 10 -11 10 -5 0 -7 -4 -4 -10z"/>
 <path d="M1140 3280 c0 -5 5 -10 11 -10 5 0 7 5 4 10 -3 6 -8 10 -11 10 -2 0 -4 -4 -4 -10z"/>
 <path d="M520 3240 c0 -5 5 -10 11 -10 5 0 7 5 4 10 -3 6 -8 10 -11 10 -2 0 -4 -4 -4 -10z"/>
 <path d="M950 3126 c0 -2 8 -10 18 -17 15 -13 16 -12 3 4 -13 16 -21 21 -21 13z"/>
 <path d="M560 3096 c0 -2 8 -10 18 -17 15 -13 16 -12 3 4 -13 16 -21 21 -21 13z"/>
 <path d="M985 3040 c3 -5 8 -10 11 -10 2 0 4 5 4 10 0 6 -5 10 -11 10 -5 0 -7 -4 -4 -10z"/>
 <path d="M1005 2960 c3 -5 8 -10 11 -10 2 0 4 5 4 10 0 6 -5 10 -11 10 -5 0 -7 -4 -4 -10z"/>
 <path d="M620 2870 c0 -5 5 -10 11 -10 5 0 7 5 4 10 -3 6 -8 10 -11 10 -2 0 -4 -4 -4 -10z"/>
 <path d="M640 2790 c0 -5 5 -10 11 -10 5 0 7 5 4 10 -3 6 -8 10 -11 10 -2 0 -4 -4 -4 -10z"/>
 <path d="M660 2731 c0 -6 4 -13 10 -16 6 -3 7 1 4 9 -7 18 -14 21 -14 7z"/>
 <path d="M1080 2660 c0 -7 3 -10 7 -7 3 4 3 10 0 14 -4 3 -7 0 -7 -7z"/>
 <path d="M680 2651 c0 -6 4 -13 10 -16 6 -3 7 1 4 9 -7 18 -14 21 -14 7z"/>
 <path d="M1100 2610 c0 -7 3 -10 7 -7 3 4 3 10 0 14 -4 3 -7 0 -7 -7z"/>
 <path d="M700 2581 c0 -11 4 -22 9 -25 4 -3 6 6 3 19 -5 30 -12 33 -12 6z"/>
 <path d="M1100 2583 c0 -7 5 -15 10 -18 6 -3 10 -19 10 -34 0 -16 7 -42 15 -57 9 -18 15 -23 15 -12 0 9 -4 20 -10 23 -5 3 -10 21 -10 38 0 18 -7 41 -15 51 -8 11 -15 15 -15 9z"/>
 <path d="M723 2460 c0 -41 2 -58 4 -37 2 20 2 54 0 75 -2 20 -4 3 -4 -38z"/>
 <path d="M560 2339 c0 -5 5 -7 10 -4 6 3 10 8 10 11 0 2 -4 4 -10 4 -5 0 -10 -5 -10 -11z"/>
 <path d="M1176 2337 c3 -10 9 -15 12 -12 3 3 0 11 -7 18 -10 9 -11 8 -5 -6z"/>
 <path d="M560 2290 c0 -5 5 -10 11 -10 5 0 7 5 4 10 -3 6 -8 10 -11 10 -2 0 -4 -4 -4 -10z"/>
 <path d="M620 2270 c0 -5 5 -10 11 -10 5 0 7 5 4 10 -3 6 -8 10 -11 10 -2 0 -4 -4 -4 -10z"/>
 <path d="M730 2266 c0 -2 8 -10 18 -17 15 -13 16 -12 3 4 -13 16 -21 21 -21 13z"/>
 <path d="M1133 2193 c4 -3 10 -3 14 0 3 4 0 7 -7 7 -7 0 -10 -3 -7 -7z"/>
 <path d="M1168 2193 c7 -3 16 -2 19 1 4 3 -2 6 -13 5 -11 0 -14 -3 -6 -6z"/>
 <path d="M1022 1905 c-13 -7 -28 -18 -33 -24 -6 -8 -5 -8 3 -1 7 6 18 10 26 10 7 0 20 7 28 15 18 18 8 18 -24 0z"/>
 <path d="M1160 1913 c14 -3 29 -9 35 -14 5 -5 14 -9 20 -9 5 0 1 7 -9 15 -11 8 -31 14 -45 14 l-26 -2 25 -4z"/>
 <path d="M1240 1880 c0 -7 3 -10 7 -7 3 4 3 10 0 14 -4 3 -7 0 -7 -7z"/>
 <path d="M950 1859 c0 -5 5 -7 10 -4 6 3 10 8 10 11 0 2 -4 4 -10 4 -5 0 -10 -5 -10 -11z"/>
 <path d="M1260 1860 c0 -7 3 -10 7 -7 3 4 3 10 0 14 -4 3 -7 0 -7 -7z"/>
 <path d="M930 1840 c0 -7 3 -10 7 -7 3 4 3 10 0 14 -4 3 -7 0 -7 -7z"/>
 <path d="M1280 1840 c0 -7 3 -10 7 -7 3 4 3 10 0 14 -4 3 -7 0 -7 -7z"/>
 <path d="M890 1779 c0 -5 5 -7 10 -4 6 3 10 8 10 11 0 2 -4 4 -10 4 -5 0 -10 -5 -10 -11z"/>
 <path d="M885 1749 c-4 -6 -5 -12 -2 -15 2 -3 7 2 10 11 7 17 1 20 -8 4z"/>
 <path d="M1335 1740 c3 -5 8 -10 11 -10 2 0 4 5 4 10 0 6 -5 10 -11 10 -5 0 -7 -4 -4 -10z"/>
 <path d="M870 1630 c0 -5 5 -10 11 -10 5 0 7 5 4 10 -3 6 -8 10 -11 10 -2 0 -4 -4 -4 -10z"/>
 <path d="M1309 1573 c-13 -16 -12 -17 4 -4 9 7 17 15 17 17 0 8 -8 3 -21 -13z"/>
 <path d="M940 1515 c19 -19 36 -35 39 -35 3 0 -10 16 -29 35 -19 19 -36 35 -39 35 -3 0 10 -16 29 -35z"/>
 <path d="M1274 1519 c-16 -17 -44 -37 -62 -46 -18 -9 -31 -17 -29 -19 8 -8 64 27 97 61 18 19 32 35 29 35 -3 0 -18 -14 -35 -31z"/>
 <path d="M1000 1476 c0 -2 8 -10 18 -17 15 -13 16 -12 3 4 -13 16 -21 21 -21 13z"/>
 </g>
<g id="layer2" fill="#50467b" stroke="none">
 <path d="M626 3695 c-11 -8 -15 -15 -9 -15 6 0 16 7 23 15 16 19 11 19 -14 0z"/>
 <path d="M764 3695 c11 -8 27 -15 35 -15 9 0 3 7 -13 15 -36 19 -47 19 -22 0z"/>
 <path d="M834 3675 c11 -8 24 -15 30 -15 5 0 1 7 -10 15 -10 8 -23 14 -29 14 -5 0 -1 -6 9 -14z"/>
 <path d="M559 3660 l-24 -20 27 13 c16 6 28 15 28 20 0 11 -6 9 -31 -13z"/>
 <path d="M887 3649 c7 -7 15 -10 18 -7 3 3 -2 9 -12 12 -14 6 -15 5 -6 -5z"/>
 <path d="M513 3618 c-19 -30 -31 -58 -23 -53 5 3 15 19 24 35 15 30 14 41 -1 18z"/>
 <path d="M920 3623 c8 -3 26 -15 40 -27 l25 -21 -24 28 c-14 15 -32 27 -40 26 -14 0 -14 -1 -1 -6z"/>
 <path d="M1010 3550 c0 -7 3 -10 7 -7 3 4 3 10 0 14 -4 3 -7 0 -7 -7z"/>
 <path d="M1030 3532 c0 -4 12 -19 27 -33 20 -18 23 -19 13 -4 -24 32 -40 47 -40 37z"/>
 <path d="M963 3503 c4 -3 10 -3 14 0 3 4 0 7 -7 7 -7 0 -10 -3 -7 -7z"/>
 <path d="M880 3475 c-9 -11 -9 -24 -1 -52 l10 -38 -3 35 c-2 19 1 43 6 53 11 21 5 22 -12 2z"/>
 <path d="M1034 3437 c28 -30 53 -52 55 -50 6 4 -90 103 -100 103 -3 0 17 -24 45 -53z"/>
 <path d="M1090 3455 c0 -4 11 -20 25 -37 14 -16 25 -26 25 -21 0 4 -11 21 -25 37 -14 16 -25 26 -25 21z"/>
 <path d="M496 3397 c3 -10 9 -15 12 -12 3 3 0 11 -7 18 -10 9 -11 8 -5 -6z"/>
 <path d="M1143 3373 c4 -3 10 -3 14 0 3 4 0 7 -7 7 -7 0 -10 -3 -7 -7z"/>
 <path d="M1090 3368 c0 -3 9 -15 20 -28 11 -13 20 -19 20 -13 0 5 -9 18 -20 28 -11 10 -20 16 -20 13z"/>
 <path d="M1165 3350 c3 -5 8 -10 11 -10 3 0 2 5 -1 10 -3 6 -8 10 -11 10 -3 0 -2 -4 1 -10z"/>
 <path d="M510 3322 c6 -13 14 -21 18 -18 3 4 -2 14 -12 24 -18 16 -18 16 -6 -6z"/>
 <path d="M895 3330 c3 -5 8 -10 11 -10 3 0 2 5 -1 10 -3 6 -8 10 -11 10 -3 0 -2 -4 1 -10z"/>
 <path d="M1141 3307 c0 -10 6 -20 15 -24 19 -7 51 21 35 32 -7 3 -10 1 -9 -6 5 -20 -30 -22 -35 -2 -4 17 -5 17 -6 0z"/>
 <path d="M910 3261 c0 -5 7 -15 17 -22 15 -13 15 -12 4 9 -12 23 -21 28 -21 13z"/>
 <path d="M531 3243 c7 -12 15 -20 18 -17 3 2 -3 12 -13 22 -17 16 -18 16 -5 -5z"/>
 <path d="M540 3172 c0 -5 7 -15 15 -22 8 -7 15 -8 15 -2 0 5 -7 15 -15 22 -8 7 -15 8 -15 2z"/>
 <path d="M950 3110 c0 -5 5 -10 11 -10 5 0 7 5 4 10 -3 6 -8 10 -11 10 -2 0 -4 -4 -4 -10z"/>
 <path d="M970 3054 c0 -6 7 -19 15 -30 8 -10 14 -14 14 -9 0 6 -6 19 -14 29 -8 11 -15 15 -15 10z"/>
 <path d="M580 3031 c0 -5 5 -13 10 -16 6 -3 10 -2 10 4 0 5 -4 13 -10 16 -5 3 -10 2 -10 -4z"/>
 <path d="M995 2960 c9 -31 25 -50 25 -29 0 7 -8 23 -16 34 -16 19 -16 19 -9 -5z"/>
 <path d="M600 2966 c0 -2 8 -10 18 -17 15 -13 16 -12 3 4 -13 16 -21 21 -21 13z"/>
 <path d="M630 2881 c0 -6 4 -13 10 -16 6 -3 7 1 4 9 -7 18 -14 21 -14 7z"/>
 <path d="M1020 2871 c0 -5 5 -13 10 -16 6 -3 10 -2 10 4 0 5 -4 13 -10 16 -5 3 -10 2 -10 -4z"/>
 <path d="M650 2806 c0 -8 4 -17 9 -20 5 -4 7 3 4 14 -6 23 -13 26 -13 6z"/>
 <path d="M670 2738 c0 -9 5 -20 10 -23 13 -8 13 5 0 25 -8 13 -10 13 -10 -2z"/>
 <path d="M1050 2739 c0 -8 7 -24 15 -35 19 -25 19 -14 0 22 -8 16 -15 22 -15 13z"/>
 <path d="M692 2670 c0 -14 2 -19 5 -12 2 6 2 18 0 25 -3 6 -5 1 -5 -13z"/>
 <path d="M1070 2656 c0 -8 4 -17 9 -20 5 -4 7 3 4 14 -6 23 -13 26 -13 6z"/>
 <path d="M712 2600 c0 -14 2 -19 5 -12 2 6 2 18 0 25 -3 6 -5 1 -5 -13z"/>
 <path d="M1091 2593 c-1 -12 4 -25 9 -28 6 -3 11 -21 11 -38 1 -26 3 -28 6 -8 3 13 0 33 -5 45 -6 12 -13 28 -15 36 -4 9 -6 7 -6 -7z"/>
 <path d="M715 2562 c4 -8 11 -26 15 -40 7 -22 8 -23 9 -6 1 11 -6 29 -15 40 -8 10 -12 13 -9 6z"/>
 <path d="M1129 2452 c5 -34 6 -35 9 -8 2 16 0 32 -5 37 -5 5 -7 -7 -4 -29z"/>
 <path d="M731 2416 c0 -11 -13 -34 -28 -50 l-28 -31 34 31 c22 21 31 38 28 50 -4 18 -5 18 -6 0z"/>
 <path d="M1147 2389 c4 -13 8 -18 11 -10 2 7 -1 18 -6 23 -8 8 -9 4 -5 -13z"/>
 <path d="M605 2343 c-46 -7 -50 -19 -5 -15 22 2 43 8 46 13 3 5 2 8 -3 8 -4 -1 -21 -4 -38 -6z"/>
 <path d="M1171 2324 c0 -11 3 -14 6 -6 3 7 2 16 -1 19 -3 4 -6 -2 -5 -13z"/>
 <path d="M560 2306 c0 -2 8 -10 18 -17 15 -13 16 -12 3 4 -13 16 -21 21 -21 13z"/>
 <path d="M611 2287 c2 -1 13 -9 24 -17 19 -14 19 -14 6 3 -7 9 -18 17 -24 17 -6 0 -8 -1 -6 -3z"/>
 <path d="M1185 2260 c3 -5 8 -10 11 -10 3 0 2 5 -1 10 -3 6 -8 10 -11 10 -3 0 -2 -4 1 -10z"/>
 <path d="M870 2235 c7 -8 17 -15 22 -15 6 0 5 7 -2 15 -7 8 -17 15 -22 15 -6 0 -5 -7 2 -15z"/>
 <path d="M980 2226 c0 -2 7 -7 16 -10 8 -3 12 -2 9 4 -6 10 -25 14 -25 6z"/>
 <path d="M1088 2203 c23 -2 59 -2 80 0 20 2 1 4 -43 4 -44 0 -61 -2 -37 -4z"/>
 <path d="M1108 1903 c49 -3 85 -10 108 -23 42 -24 51 -25 30 -5 -8 8 -21 15 -30 15 -8 0 -18 5 -21 10 -3 6 -40 9 -83 8 l-77 -2 73 -3z"/>
 <path d="M970 1865 c-19 -14 -31 -25 -26 -25 4 0 20 8 34 19 15 10 34 21 42 24 13 5 13 5 0 6 -8 0 -31 -11 -50 -24z"/>
 <path d="M1263 1843 c4 -3 10 -3 14 0 3 4 0 7 -7 7 -7 0 -10 -3 -7 -7z"/>
 <path d="M1293 1806 c7 -14 15 -26 19 -26 11 0 -7 43 -20 48 -7 2 -7 -5 1 -22z"/>
 <path d="M910 1790 c-12 -16 -19 -30 -16 -30 2 0 14 14 26 30 12 17 19 30 16 30 -2 0 -14 -13 -26 -30z"/>
 <path d="M1325 1694 c0 -49 3 -60 13 -52 15 13 15 78 -1 99 -10 13 -12 5 -12 -47z"/>
 <path d="M880 1721 c-13 -26 -12 -72 3 -92 10 -13 12 -4 12 48 0 34 -1 63 -2 63 -1 0 -7 -9 -13 -19z"/>
 <path d="M890 1582 c0 -5 7 -15 15 -22 8 -7 15 -8 15 -2 0 5 -7 15 -15 22 -8 7 -15 8 -15 2z"/>
 <path d="M1300 1579 c0 -5 5 -7 10 -4 6 3 10 8 10 11 0 2 -4 4 -10 4 -5 0 -10 -5 -10 -11z"/>
 <path d="M1280 1539 c0 -5 5 -7 10 -4 6 3 10 8 10 11 0 2 -4 4 -10 4 -5 0 -10 -5 -10 -11z"/>
 <path d="M950 1515 c13 -14 26 -25 28 -25 3 0 -5 11 -18 25 -13 14 -26 25 -28 25 -3 0 5 -11 18 -25z"/>
 <path d="M1200 1480 c-19 -11 -30 -19 -24 -20 12 0 74 29 74 36 0 8 -15 3 -50 -16z"/>
 </g>
<g id="layer3" fill="#3b2e70" stroke="none">
 <path d="M641 3696 c-10 -12 -8 -13 9 -9 25 7 37 23 17 23 -8 0 -20 -6 -26 -14z"/>
 <path d="M734 3695 c11 -8 27 -15 35 -15 11 0 10 4 -5 15 -10 8 -26 14 -34 14 -11 0 -10 -3 4 -14z"/>
 <path d="M590 3679 c0 -5 5 -7 10 -4 6 3 10 8 10 11 0 2 -4 4 -10 4 -5 0 -10 -5 -10 -11z"/>
 <path d="M822 3674 c10 -10 20 -16 22 -13 3 3 -5 11 -17 18 -21 13 -21 12 -5 -5z"/>
 <path d="M870 3661 c0 -6 4 -13 10 -16 6 -3 7 1 4 9 -7 18 -14 21 -14 7z"/>
 <path d="M514 3608 c-4 -7 -3 -8 4 -4 7 4 12 9 12 12 0 8 -9 4 -16 -8z"/>
 <path d="M930 3616 c0 -2 8 -10 18 -17 15 -13 16 -12 3 4 -13 16 -21 21 -21 13z"/>
 <path d="M491 3567 c-7 -9 -11 -24 -9 -34 3 -16 5 -15 17 5 15 29 10 50 -8 29z"/>
 <path d="M1013 3533 c4 -3 10 -3 14 0 3 4 0 7 -7 7 -7 0 -10 -3 -7 -7z"/>
 <path d="M902 3513 c-7 -2 -17 -14 -23 -25 -11 -20 -10 -20 12 -4 13 9 34 16 46 16 13 0 23 5 23 10 0 10 -35 12 -58 3z"/>
 <path d="M480 3453 c0 -28 5 -43 16 -47 14 -5 15 -1 9 31 -10 55 -25 65 -25 16z"/>
 <path d="M1020 3465 c13 -14 26 -25 28 -25 3 0 -5 11 -18 25 -13 14 -26 25 -28 25 -3 0 5 -11 18 -25z"/>
 <path d="M1075 3470 c3 -5 11 -10 16 -10 6 0 7 5 4 10 -3 6 -11 10 -16 10 -6 0 -7 -4 -4 -10z"/>
 <path d="M861 3450 c0 -8 4 -24 9 -35 5 -13 9 -14 9 -5 0 8 -4 24 -9 35 -5 13 -9 14 -9 5z"/>
 <path d="M880 3368 c0 -14 7 -39 15 -54 8 -16 15 -22 15 -13 0 9 -3 19 -7 23 -4 4 -9 19 -11 34 -5 36 -12 42 -12 10z"/>
 <path d="M500 3362 c0 -11 6 -25 14 -31 11 -9 12 -6 8 14 -5 31 -22 43 -22 17z"/>
 <path d="M1080 3376 c0 -2 7 -6 15 -10 8 -3 15 -1 15 4 0 6 -7 10 -15 10 -8 0 -15 -2 -15 -4z"/>
 <path d="M1166 3337 c3 -10 9 -15 12 -12 3 3 0 11 -7 18 -10 9 -11 8 -5 -6z"/>
 <path d="M1133 3323 c4 -3 10 -3 14 0 3 4 0 7 -7 7 -7 0 -10 -3 -7 -7z"/>
 <path d="M1174 3298 c-4 -7 -3 -8 4 -4 7 4 12 9 12 12 0 8 -9 4 -16 -8z"/>
 <path d="M520 3282 c0 -11 6 -25 14 -31 11 -9 12 -6 8 14 -5 31 -22 43 -22 17z"/>
 <path d="M925 3230 c3 -5 8 -10 11 -10 3 0 2 5 -1 10 -3 6 -8 10 -11 10 -3 0 -2 -4 1 -10z"/>
 <path d="M540 3191 c0 -5 7 -15 17 -22 15 -13 15 -12 4 9 -12 23 -21 28 -21 13z"/>
 <path d="M930 3193 c0 -5 7 -18 15 -29 12 -16 14 -16 15 -3 0 9 -7 22 -15 29 -8 7 -15 8 -15 3z"/>
 <path d="M560 3112 c0 -5 7 -15 15 -22 8 -7 15 -8 15 -2 0 5 -7 15 -15 22 -8 7 -15 8 -15 2z"/>
 <path d="M960 3073 c0 -22 2 -25 10 -13 13 20 13 40 0 40 -5 0 -10 -12 -10 -27z"/>
 <path d="M580 3059 c0 -4 7 -20 15 -35 8 -16 15 -22 15 -13 0 14 -29 61 -30 48z"/>
 <path d="M980 2995 c0 -15 4 -24 10 -20 6 3 10 12 10 20 0 8 -4 17 -10 20 -6 4 -10 -5 -10 -20z"/>
 <path d="M600 2981 c0 -5 7 -15 17 -22 15 -13 15 -12 4 9 -12 23 -21 28 -21 13z"/>
 <path d="M990 2944 c0 -12 7 -27 15 -34 19 -16 19 -10 0 26 -13 25 -15 26 -15 8z"/>
 <path d="M623 2933 c4 -3 10 -3 14 0 3 4 0 7 -7 7 -7 0 -10 -3 -7 -7z"/>
 <path d="M630 2899 c7 -11 14 -33 16 -47 7 -34 14 -41 14 -13 0 22 -26 81 -36 81 -2 0 0 -9 6 -21z"/>
 <path d="M1010 2874 c0 -11 7 -29 15 -40 19 -25 19 -4 0 32 -12 24 -15 26 -15 8z"/>
 <path d="M666 2785 c8 -37 14 -45 14 -19 0 10 -5 26 -10 34 -8 11 -9 7 -4 -15z"/>
 <path d="M1030 2798 c0 -8 7 -23 15 -34 14 -19 14 -19 15 2 0 12 -7 27 -15 34 -12 10 -15 10 -15 -2z"/>
 <path d="M685 2711 c-3 -5 -1 -12 5 -16 5 -3 10 1 10 9 0 18 -6 21 -15 7z"/>
 <path d="M1065 2690 c3 -5 8 -10 11 -10 3 0 2 5 -1 10 -3 6 -8 10 -11 10 -3 0 -2 -4 1 -10z"/>
 <path d="M697 2657 c-3 -9 1 -21 9 -27 11 -10 14 -10 14 1 0 8 -4 20 -9 27 -7 11 -9 11 -14 -1z"/>
 <path d="M1070 2631 c0 -5 7 -11 15 -15 8 -3 15 -1 15 3 0 5 -7 11 -15 15 -8 3 -15 1 -15 -3z"/>
 <path d="M718 2584 c-4 -5 0 -18 8 -29 15 -20 17 -12 5 19 -4 11 -10 15 -13 10z"/>
 <path d="M1096 2557 c3 -10 9 -15 12 -12 3 3 0 11 -7 18 -10 9 -11 8 -5 -6z"/>
 <path d="M730 2466 c0 -19 5 -38 10 -41 6 -4 10 10 10 34 0 23 -4 41 -10 41 -5 0 -10 -15 -10 -34z"/>
 <path d="M1110 2491 c0 -6 4 -13 10 -16 6 -3 7 1 4 9 -7 18 -14 21 -14 7z"/>
 <path d="M1130 2410 c0 -7 3 -10 7 -7 3 4 3 10 0 14 -4 3 -7 0 -7 -7z"/>
 <path d="M1150 2358 c0 -9 5 -20 10 -23 13 -8 13 5 0 25 -8 13 -10 13 -10 -2z"/>
 <path d="M645 2340 c-3 -5 1 -10 9 -10 8 0 18 5 21 10 3 6 -1 10 -9 10 -8 0 -18 -4 -21 -10z"/>
 <path d="M566 2321 c-3 -4 4 -17 17 -27 22 -19 22 -19 4 2 -9 11 -14 24 -10 27 3 4 4 7 0 7 -3 0 -8 -4 -11 -9z"/>
 <path d="M598 2323 c6 -2 18 -2 25 0 6 3 1 5 -13 5 -14 0 -19 -2 -12 -5z"/>
 <path d="M1172 2290 c-1 -14 5 -34 13 -44 8 -11 15 -15 15 -10 0 6 -4 14 -9 20 -5 5 -11 20 -14 34 l-4 25 -1 -25z"/>
 <path d="M642 2274 c10 -10 20 -15 24 -12 3 4 -5 12 -18 18 -22 12 -22 12 -6 -6z"/>
 <path d="M749 2256 c7 -9 23 -16 34 -16 26 0 12 15 -23 25 -22 7 -23 6 -11 -9z"/>
 <path d="M892 2234 c10 -10 20 -15 24 -12 3 4 -5 12 -18 18 -22 12 -22 12 -6 -6z"/>
 <path d="M1007 2214 c3 -8 14 -14 25 -14 23 0 16 16 -11 23 -14 3 -18 1 -14 -9z"/>
 <path d="M1034 1888 c-4 -7 -3 -8 4 -4 12 7 16 16 8 16 -3 0 -8 -5 -12 -12z"/>
 <path d="M1170 1896 c0 -2 7 -7 16 -10 8 -3 12 -2 9 4 -6 10 -25 14 -25 6z"/>
 <path d="M994 1868 c-4 -7 -3 -8 4 -4 12 7 16 16 8 16 -3 0 -8 -5 -12 -12z"/>
 <path d="M1210 1876 c0 -2 7 -7 16 -10 8 -3 12 -2 9 4 -6 10 -25 14 -25 6z"/>
 <path d="M964 1848 c-4 -7 -3 -8 4 -4 12 7 16 16 8 16 -3 0 -8 -5 -12 -12z"/>
 <path d="M935 1830 c-3 -5 -1 -10 4 -10 6 0 11 5 11 10 0 6 -2 10 -4 10 -3 0 -8 -4 -11 -10z"/>
 <path d="M905 1770 c-3 -6 1 -7 9 -4 18 7 21 14 7 14 -6 0 -13 -4 -16 -10z"/>
 <path d="M1315 1770 c3 -5 8 -10 11 -10 2 0 4 5 4 10 0 6 -5 10 -11 10 -5 0 -7 -4 -4 -10z"/>
 <path d="M1323 1695 c0 -27 2 -38 4 -22 2 15 2 37 0 50 -2 12 -4 0 -4 -28z"/>
 <path d="M893 1675 c0 -27 2 -38 4 -22 2 15 2 37 0 50 -2 12 -4 0 -4 -28z"/>
 <path d="M1316 1611 c-4 -7 -5 -15 -2 -18 9 -9 19 4 14 18 -4 11 -6 11 -12 0z"/>
 <path d="M890 1596 c0 -2 7 -9 15 -16 13 -11 14 -10 9 4 -5 14 -24 23 -24 12z"/>
 <path d="M1293 1553 c4 -3 10 -3 14 0 3 4 0 7 -7 7 -7 0 -10 -3 -7 -7z"/>
 <path d="M923 1543 c4 -3 10 -3 14 0 3 4 0 7 -7 7 -7 0 -10 -3 -7 -7z"/>
 <path d="M1251 1519 c-16 -13 -18 -19 -8 -19 15 0 43 27 36 34 -2 3 -15 -4 -28 -15z"/>
 <path d="M976 1497 c9 -23 58 -37 128 -35 l71 2 -68 3 c-43 3 -81 11 -102 23 -20 11 -32 14 -29 7z"/>
 </g>
<g id="layer4" fill="#3e93c4" stroke="none">
 <path d="M3010 3720 c0 -5 11 -10 24 -10 14 0 28 5 31 10 4 6 -7 10 -24 10 -17 0 -31 -4 -31 -10z"/>
 <path d="M3156 3721 c5 -5 28 -11 52 -14 39 -5 41 -4 25 9 -20 15 -93 20 -77 5z"/>
 <path d="M4305 3720 c-3 -5 1 -10 9 -10 8 0 18 5 21 10 3 6 -1 10 -9 10 -8 0 -18 -4 -21 -10z"/>
 <path d="M4476 3721 c5 -4 26 -11 47 -14 32 -5 35 -4 23 9 -8 8 -29 14 -47 14 -19 0 -29 -4 -23 -9z"/>
 <path d="M2233 3703 c9 -2 23 -2 30 0 6 3 -1 5 -18 5 -16 0 -22 -2 -12 -5z"/>
 <path d="M2365 3700 c3 -5 13 -10 21 -10 8 0 12 5 9 10 -3 6 -13 10 -21 10 -8 0 -12 -4 -9 -10z"/>
 <path d="M2856 3675 c-11 -8 -15 -15 -9 -15 6 0 16 7 23 15 16 19 11 19 -14 0z"/>
 <path d="M3370 3675 c7 -8 17 -15 22 -15 6 0 5 7 -2 15 -7 8 -17 15 -22 15 -6 0 -5 -7 2 -15z"/>
 <path d="M4156 3675 c-11 -8 -15 -15 -9 -15 6 0 16 7 23 15 16 19 11 19 -14 0z"/>
 <path d="M4203 3683 c4 -3 10 -3 14 0 3 4 0 7 -7 7 -7 0 -10 -3 -7 -7z"/>
 <path d="M4672 3674 c10 -10 20 -15 24 -12 3 4 -5 12 -18 18 -22 12 -22 12 -6 -6z"/>
 <path d="M1969 3653 c-13 -16 -12 -17 4 -4 9 7 17 15 17 17 0 8 -8 3 -21 -13z"/>
 <path d="M3410 3666 c0 -2 8 -10 18 -17 15 -13 16 -12 3 4 -13 16 -21 21 -21 13z"/>
 <path d="M2765 3630 c-3 -5 -1 -10 4 -10 6 0 11 5 11 10 0 6 -2 10 -4 10 -3 0 -8 -4 -11 -10z"/>
 <path d="M2721 3604 c-7 -8 -11 -17 -9 -20 3 -2 13 5 23 16 10 11 14 20 9 20 -5 -1 -15 -8 -23 -16z"/>
 <path d="M1896 3559 c-11 -21 -16 -42 -13 -45 4 -4 9 2 13 12 3 10 11 29 17 41 6 13 8 25 6 27 -2 3 -13 -13 -23 -35z"/>
 <path d="M4009 3573 c-13 -16 -12 -17 4 -4 9 7 17 15 17 17 0 8 -8 3 -21 -13z"/>
 <path d="M2690 3570 c0 -7 3 -10 7 -7 3 4 3 10 0 14 -4 3 -7 0 -7 -7z"/>
 <path d="M4840 3571 c0 -5 5 -13 10 -16 6 -3 10 -2 10 4 0 5 -4 13 -10 16 -5 3 -10 2 -10 -4z"/>
 <path d="M3576 3540 c11 -14 33 -45 48 -68 15 -24 30 -41 33 -38 6 6 -26 50 -72 100 -16 17 -21 20 -9 6z"/>
 <path d="M3961 3526 l-24 -31 28 27 c16 15 27 29 24 31 -2 3 -15 -10 -28 -27z"/>
 <path d="M2630 3509 c0 -5 5 -7 10 -4 6 3 10 8 10 11 0 2 -4 4 -10 4 -5 0 -10 -5 -10 -11z"/>
 <path d="M1867 3474 c-4 -4 -7 -14 -7 -23 0 -11 3 -12 11 -4 6 6 10 16 7 23 -2 6 -7 8 -11 4z"/>
 <path d="M3903 3453 c-18 -38 -8 -41 12 -4 8 17 12 31 8 31 -5 0 -14 -12 -20 -27z"/>
 <path d="M2303 3449 c-38 -19 -65 -49 -43 -49 6 0 10 4 10 8 0 8 65 44 100 55 10 4 9 6 -5 6 -11 1 -39 -8 -62 -20z"/>
 <path d="M3080 3463 c-14 -2 -29 -9 -34 -14 -14 -13 21 -11 61 3 27 10 38 10 53 0 24 -15 59 -17 44 -2 -12 12 -89 20 -124 13z"/>
 <path d="M2593 3453 c4 -3 10 -3 14 0 3 4 0 7 -7 7 -7 0 -10 -3 -7 -7z"/>
 <path d="M3240 3433 c14 -9 31 -23 39 -31 7 -7 16 -11 18 -8 8 7 -50 55 -67 56 -9 0 -5 -7 10 -17z"/>
 <path d="M4385 3430 c-3 -5 1 -10 9 -10 9 0 16 5 16 10 0 6 -4 10 -9 10 -6 0 -13 -4 -16 -10z"/>
 <path d="M4420 3430 c0 -5 9 -10 21 -10 11 0 17 5 14 10 -3 6 -13 10 -21 10 -8 0 -14 -4 -14 -10z"/>
 <path d="M2575 3420 c-3 -5 -1 -10 4 -10 6 0 11 5 11 10 0 6 -2 10 -4 10 -3 0 -8 -4 -11 -10z"/>
 <path d="M2964 3408 c-19 -23 -19 -23 1 -7 11 9 27 19 35 22 13 5 13 6 -1 6 -9 1 -24 -9 -35 -21z"/>
 <path d="M4322 3416 c-33 -19 -36 -24 -8 -19 14 3 27 11 30 19 3 8 4 14 3 13 -1 -1 -12 -7 -25 -13z"/>
 <path d="M4504 3415 c8 -8 21 -15 28 -15 8 0 20 -9 28 -20 8 -11 19 -20 24 -20 14 0 -26 40 -56 56 -35 18 -43 18 -24 -1z"/>
 <path d="M3877 3403 c-4 -3 -7 -11 -7 -17 0 -6 5 -5 12 2 6 6 9 14 7 17 -3 3 -9 2 -12 -2z"/>
 <path d="M4950 3401 c0 -6 4 -13 10 -16 6 -3 7 1 4 9 -7 18 -14 21 -14 7z"/>
 <path d="M2550 3368 c-12 -22 -12 -22 6 -6 10 10 15 20 12 24 -4 3 -12 -5 -18 -18z"/>
 <path d="M2937 3373 c-4 -3 -7 -11 -7 -17 0 -6 5 -5 12 2 6 6 9 14 7 17 -3 3 -9 2 -12 -2z"/>
 <path d="M3310 3370 c0 -5 5 -10 11 -10 5 0 7 5 4 10 -3 6 -8 10 -11 10 -2 0 -4 -4 -4 -10z"/>
 <path d="M4265 3354 c-9 -15 -12 -23 -6 -20 11 7 35 46 28 46 -3 0 -12 -12 -22 -26z"/>
 <path d="M3850 3340 c-6 -12 -9 -24 -7 -27 3 -2 11 5 17 17 6 12 9 24 7 27 -3 2 -11 -5 -17 -17z"/>
 <path d="M2917 3333 c-4 -3 -7 -11 -7 -17 0 -6 5 -5 12 2 6 6 9 14 7 17 -3 3 -9 2 -12 -2z"/>
 <path d="M3380 3330 c0 -6 51 -10 134 -10 79 0 137 4 141 10 4 6 -43 10 -134 10 -87 0 -141 -4 -141 -10z"/>
 <path d="M4590 3330 c0 -5 5 -10 11 -10 5 0 7 5 4 10 -3 6 -8 10 -11 10 -2 0 -4 -4 -4 -10z"/>
 <path d="M4970 3331 c0 -6 4 -13 10 -16 6 -3 7 1 4 9 -7 18 -14 21 -14 7z"/>
 <path d="M2540 3320 c0 -7 3 -10 7 -7 3 4 3 10 0 14 -4 3 -7 0 -7 -7z"/>
 <path d="M4610 3300 c0 -7 3 -10 7 -7 3 4 3 10 0 14 -4 3 -7 0 -7 -7z"/>
 <path d="M4226 3271 c-4 -7 -5 -15 -2 -18 9 -9 19 4 14 18 -4 11 -6 11 -12 0z"/>
 <path d="M3828 3264 c-5 -4 -8 -19 -8 -33 0 -18 3 -22 11 -14 6 6 9 21 7 33 -1 12 -6 18 -10 14z"/>
 <path d="M4640 3263 c0 -5 72 -8 159 -8 88 0 163 3 167 8 4 4 -68 7 -159 7 -92 0 -167 -3 -167 -7z"/>
 <path d="M2900 3201 c0 -10 19 -25 25 -20 1 2 -3 10 -11 17 -8 7 -14 8 -14 3z"/>
 <path d="M3713 3115 c0 -38 2 -53 4 -32 2 20 2 52 0 70 -2 17 -4 1 -4 -38z"/>
 <path d="M3702 2987 c-16 -37 -15 -41 4 -23 8 9 14 24 11 34 -3 13 -6 11 -15 -11z"/>
 <path d="M2224 2976 c-3 -7 -4 -35 -2 -62 l3 -49 5 63 c5 63 4 73 -6 48z"/>
 <path d="M2890 2979 c0 -5 5 -7 10 -4 6 3 10 8 10 11 0 2 -4 4 -10 4 -5 0 -10 -5 -10 -11z"/>
 <path d="M3333 2983 c4 -3 10 -3 14 0 3 4 0 7 -7 7 -7 0 -10 -3 -7 -7z"/>
 <path d="M3820 2971 c0 -12 5 -21 10 -21 6 0 10 6 10 14 0 8 -4 18 -10 21 -5 3 -10 -3 -10 -14z"/>
 <path d="M3353 2930 c0 -25 2 -35 4 -22 2 12 2 32 0 45 -2 12 -4 2 -4 -23z"/>
 <path d="M4220 2946 c0 -8 5 -18 10 -21 6 -3 10 1 10 9 0 8 -4 18 -10 21 -5 3 -10 -1 -10 -9z"/>
 <path d="M3836 2927 c3 -10 9 -15 12 -12 3 3 0 11 -7 18 -10 9 -11 8 -5 -6z"/>
 <path d="M4653 2913 c9 -2 25 -2 35 0 9 3 1 5 -18 5 -19 0 -27 -2 -17 -5z"/>
 <path d="M2531 2890 c14 -31 19 -36 19 -24 0 6 -7 19 -16 30 -14 18 -14 18 -3 -6z"/>
 <path d="M4230 2903 c0 -4 5 -15 10 -23 8 -13 10 -13 10 2 0 9 -4 20 -10 23 -5 3 -10 3 -10 -2z"/>
 <path d="M3840 2885 c0 -11 8 -29 16 -40 15 -19 15 -19 8 10 -8 37 -24 57 -24 30z"/>
 <path d="M3330 2869 c0 -5 5 -7 10 -4 6 3 10 8 10 11 0 2 -4 4 -10 4 -5 0 -10 -5 -10 -11z"/>
 <path d="M4590 2865 c0 -8 2 -15 4 -15 2 0 6 7 10 15 3 8 1 15 -4 15 -6 0 -10 -7 -10 -15z"/>
 <path d="M4250 2853 c0 -6 8 -17 18 -24 16 -13 16 -13 2 6 -8 11 -16 22 -17 24 -2 2 -3 0 -3 -6z"/>
 <path d="M2910 2841 c0 -6 4 -13 10 -16 6 -3 7 1 4 9 -7 18 -14 21 -14 7z"/>
 <path d="M4975 2819 c-4 -6 -5 -12 -2 -15 2 -3 7 2 10 11 7 17 1 20 -8 4z"/>
 <path d="M2222 2778 c2 -26 8 -43 18 -45 12 -4 13 -3 1 5 -10 7 -12 21 -8 46 3 21 2 36 -4 36 -6 0 -9 -19 -7 -42z"/>
 <path d="M3875 2800 c3 -5 8 -10 11 -10 2 0 4 5 4 10 0 6 -5 10 -11 10 -5 0 -7 -4 -4 -10z"/>
 <path d="M4290 2800 c0 -5 5 -10 11 -10 5 0 7 5 4 10 -3 6 -8 10 -11 10 -2 0 -4 -4 -4 -10z"/>
 <path d="M3282 2785 c-7 -8 -9 -15 -4 -15 5 0 15 7 22 15 16 19 -1 19 -18 0z"/>
 <path d="M4553 2793 c4 -3 10 -3 14 0 3 4 0 7 -7 7 -7 0 -10 -3 -7 -7z"/>
 <path d="M2577 2770 c3 -10 11 -24 19 -31 10 -8 10 -3 -2 20 -18 35 -24 40 -17 11z"/>
 <path d="M2977 2760 c18 -19 34 -32 36 -29 2 2 -12 17 -32 33 l-36 30 32 -34z"/>
 <path d="M3890 2770 c0 -7 3 -10 7 -7 3 4 3 10 0 14 -4 3 -7 0 -7 -7z"/>
 <path d="M4340 2767 c19 -20 100 -35 100 -18 0 6 -16 11 -36 11 -19 0 -45 5 -57 11 -20 10 -21 10 -7 -4z"/>
 <path d="M4506 2765 c-25 -19 -16 -19 20 0 16 8 22 15 14 15 -8 -1 -24 -7 -34 -15z"/>
 <path d="M1832 2744 c-7 -8 -8 -14 -3 -14 10 0 25 19 20 25 -2 1 -10 -3 -17 -11z"/>
 <path d="M3253 2753 c4 -3 10 -3 14 0 3 4 0 7 -7 7 -7 0 -10 -3 -7 -7z"/>
 <path d="M3619 2743 c-13 -16 -12 -17 4 -4 16 13 21 21 13 21 -2 0 -10 -8 -17 -17z"/>
 <path d="M3909 2732 c5 -10 18 -25 27 -33 11 -9 9 -2 -6 19 -26 35 -36 42 -21 14z"/>
 <path d="M3052 2724 c10 -10 20 -16 22 -13 3 3 -5 11 -17 18 -21 13 -21 12 -5 -5z"/>
 <path d="M3185 2725 c-16 -7 -23 -14 -14 -14 8 -1 24 6 35 14 24 18 18 18 -21 0z"/>
 <path d="M2610 2712 c0 -5 10 -17 22 -28 l21 -19 -18 28 c-18 28 -25 33 -25 19z"/>
 <path d="M3600 2709 c0 -5 5 -7 10 -4 6 3 10 8 10 11 0 2 -4 4 -10 4 -5 0 -10 -5 -10 -11z"/>
 <path d="M1683 2635 c0 -38 2 -53 4 -32 2 20 2 52 0 70 -2 17 -4 1 -4 -38z"/>
 <path d="M2419 2640 c-1 -14 -3 -41 -4 -60 -3 -31 -1 -29 12 14 11 35 12 51 4 59 -8 8 -11 4 -12 -13z"/>
 <path d="M4880 2645 c-7 -9 -11 -17 -9 -20 3 -2 10 5 17 15 14 24 10 26 -8 5z"/>
 <path d="M3514 2618 l-19 -23 23 19 c21 18 27 26 19 26 -2 0 -12 -10 -23 -22z"/>
 <path d="M3990 2630 c0 -7 3 -10 7 -7 3 4 3 10 0 14 -4 3 -7 0 -7 -7z"/>
 <path d="M4010 2615 c0 -9 25 -30 55 -46 20 -11 20 -11 0 7 -35 33 -55 47 -55 39z"/>
 <path d="M2720 2596 c0 -2 14 -14 30 -26 17 -12 30 -19 30 -16 0 2 -13 14 -30 26 -16 12 -30 19 -30 16z"/>
 <path d="M4790 2569 c0 -5 5 -7 10 -4 6 3 10 8 10 11 0 2 -4 4 -10 4 -5 0 -10 -5 -10 -11z"/>
 <path d="M4760 2545 c-7 -9 -8 -15 -2 -15 5 0 12 7 16 15 3 8 4 15 2 15 -2 0 -9 -7 -16 -15z"/>
 <path d="M2840 2525 c0 -4 60 -35 67 -35 2 0 2 4 -1 9 -6 9 -66 33 -66 26z"/>
 <path d="M3365 2520 c-3 -5 -2 -10 4 -10 5 0 13 5 16 10 3 6 2 10 -4 10 -5 0 -13 -4 -16 -10z"/>
 <path d="M4140 2527 c3 -3 23 -12 45 -21 31 -13 37 -14 25 -3 -8 8 -28 18 -45 22 -16 3 -28 4 -25 2z"/>
 <path d="M1821 2501 c13 -11 26 -17 29 -14 6 6 -30 33 -43 33 -5 0 1 -9 14 -19z"/>
 <path d="M2220 2501 c-13 -25 -13 -44 0 -36 6 3 10 15 10 25 0 10 6 21 13 23 9 4 9 6 0 6 -7 1 -17 -8 -23 -18z"/>
 <path d="M4664 2505 c-10 -8 -14 -14 -9 -14 6 0 19 6 29 14 11 8 15 15 10 15 -6 0 -19 -7 -30 -15z"/>
 <path d="M2970 2486 c28 -17 50 -21 35 -7 -6 5 -21 12 -35 15 l-25 7 25 -15z"/>
 <path d="M3215 2480 c-3 -5 -2 -10 4 -10 5 0 13 5 16 10 3 6 2 10 -4 10 -5 0 -13 -4 -16 -10z"/>
 <path d="M4275 2480 c3 -5 11 -10 16 -10 6 0 7 5 4 10 -3 6 -11 10 -16 10 -6 0 -7 -4 -4 -10z"/>
 <path d="M3077 2473 c18 -2 50 -2 70 0 21 2 7 4 -32 4 -38 0 -55 -2 -38 -4z"/>
 <path d="M4373 2473 c31 -2 83 -2 115 0 31 2 5 3 -58 3 -63 0 -89 -1 -57 -3z"/>
 <path d="M1842 2420 c-1 -14 -5 -36 -8 -50 -5 -19 -4 -22 5 -14 7 7 11 28 8 50 -2 22 -4 28 -5 14z"/>
 <path d="M1820 2265 c0 -30 5 -55 10 -55 6 0 10 25 10 55 0 30 -4 55 -10 55 -5 0 -10 -25 -10 -55z"/>
 <path d="M1908 2183 c17 -2 47 -2 65 0 17 2 3 4 -33 4 -36 0 -50 -2 -32 -4z"/>
 <path d="M2068 2183 c7 -3 16 -2 19 1 4 3 -2 6 -13 5 -11 0 -14 -3 -6 -6z"/>
 <path d="M2158 2183 c7 -3 16 -2 19 1 4 3 -2 6 -13 5 -11 0 -14 -3 -6 -6z"/>
 </g>
<g id="layer5" fill="#237ca7" stroke="none">
 <path d="M2083 3698 c4 -14 46 -12 62 3 5 5 -6 9 -29 9 -26 0 -36 -4 -33 -12z"/>
 <path d="M2306 3701 c5 -5 20 -12 34 -16 22 -7 23 -6 11 9 -7 9 -23 16 -34 16 -13 0 -17 -4 -11 -9z"/>
 <path d="M2930 3695 c0 -8 4 -15 9 -15 5 0 14 7 21 15 10 13 9 15 -9 15 -12 0 -21 -6 -21 -15z"/>
 <path d="M3274 3695 c11 -8 27 -15 35 -15 11 0 10 4 -5 15 -10 8 -26 14 -34 14 -11 0 -10 -3 4 -14z"/>
 <path d="M4230 3695 c-10 -12 -9 -15 8 -15 11 0 25 7 32 15 10 12 9 15 -8 15 -11 0 -25 -7 -32 -15z"/>
 <path d="M4574 3695 c26 -19 47 -19 40 0 -4 8 -18 15 -33 15 -25 -1 -25 -1 -7 -15z"/>
 <path d="M2006 3671 c-16 -18 -15 -18 19 -7 38 12 47 26 17 26 -11 0 -26 -8 -36 -19z"/>
 <path d="M2875 3680 c-3 -5 -2 -10 4 -10 5 0 13 5 16 10 3 6 2 10 -4 10 -5 0 -13 -4 -16 -10z"/>
 <path d="M3340 3680 c0 -7 3 -10 7 -7 3 4 3 10 0 14 -4 3 -7 0 -7 -7z"/>
 <path d="M4175 3680 c-3 -5 -2 -10 4 -10 5 0 13 5 16 10 3 6 2 10 -4 10 -5 0 -13 -4 -16 -10z"/>
 <path d="M4645 3680 c3 -5 11 -10 16 -10 6 0 7 5 4 10 -3 6 -11 10 -16 10 -6 0 -7 -4 -4 -10z"/>
 <path d="M2410 3666 c0 -9 5 -16 10 -16 6 0 10 4 10 9 0 6 -4 13 -10 16 -5 3 -10 -1 -10 -9z"/>
 <path d="M2825 3660 c-3 -5 -1 -10 4 -10 6 0 11 5 11 10 0 6 -2 10 -4 10 -3 0 -8 -4 -11 -10z"/>
 <path d="M3396 3661 c-3 -5 3 -11 15 -14 16 -4 18 -3 8 9 -13 16 -16 17 -23 5z"/>
 <path d="M4126 3653 c-4 -5 -12 -9 -17 -9 -5 -1 -13 -2 -19 -3 -12 -1 -13 -21 -1 -21 10 0 59 39 50 40 -3 0 -9 -3 -13 -7z"/>
 <path d="M4710 3651 c0 -5 9 -11 21 -14 16 -4 18 -3 8 9 -13 16 -29 19 -29 5z"/>
 <path d="M2780 3634 c0 -8 5 -12 10 -9 6 3 10 10 10 16 0 5 -4 9 -10 9 -5 0 -10 -7 -10 -16z"/>
 <path d="M3475 3610 c3 -5 16 -15 28 -21 l22 -11 -22 21 c-23 22 -39 28 -28 11z"/>
 <path d="M4800 3596 c0 -2 8 -10 18 -17 15 -13 16 -12 3 4 -13 16 -21 21 -21 13z"/>
 <path d="M3536 3565 c4 -8 8 -15 10 -15 2 0 4 7 4 15 0 8 -4 15 -10 15 -5 0 -7 -7 -4 -15z"/>
 <path d="M3994 3548 c-4 -7 -3 -8 4 -4 7 4 12 9 12 12 0 8 -9 4 -16 -8z"/>
 <path d="M4856 3536 c3 -8 13 -17 22 -21 13 -5 13 -2 -3 15 -21 24 -26 25 -19 6z"/>
 <path d="M2404 3468 c-4 -7 -3 -8 4 -4 7 4 12 9 12 12 0 8 -9 4 -16 -8z"/>
 <path d="M4912 3471 c2 -7 7 -12 11 -12 12 1 9 15 -3 20 -7 2 -11 -2 -8 -8z"/>
 <path d="M4333 3433 c4 -3 10 -3 14 0 3 4 0 7 -7 7 -7 0 -10 -3 -7 -7z"/>
 <path d="M1865 3421 c-3 -5 -1 -12 5 -16 5 -3 10 1 10 9 0 18 -6 21 -15 7z"/>
 <path d="M3643 3414 c2 -10 8 -27 12 -38 5 -12 3 -21 -6 -28 -11 -7 -9 -8 6 -6 28 4 30 33 6 65 -17 20 -21 22 -18 7z"/>
 <path d="M4940 3414 c0 -8 5 -12 10 -9 6 3 10 10 10 16 0 5 -4 9 -10 9 -5 0 -10 -7 -10 -16z"/>
 <path d="M2237 3407 c-11 -29 -9 -43 4 -30 6 6 9 19 7 29 -3 18 -4 18 -11 1z"/>
 <path d="M3310 3390 c0 -5 5 -10 11 -10 5 0 7 5 4 10 -3 6 -8 10 -11 10 -2 0 -4 -4 -4 -10z"/>
 <path d="M4274 3388 c-4 -7 -3 -8 4 -4 7 4 12 9 12 12 0 8 -9 4 -16 -8z"/>
 <path d="M4565 3390 c3 -5 8 -10 11 -10 3 0 2 5 -1 10 -3 6 -8 10 -11 10 -3 0 -2 -4 1 -10z"/>
 <path d="M1868 3358 c-3 -7 -1 -24 3 -38 6 -22 7 -20 8 13 1 38 -3 47 -11 25z"/>
 <path d="M4956 3356 c3 -9 11 -16 16 -16 13 0 5 23 -10 28 -7 2 -10 -2 -6 -12z"/>
 <path d="M3330 3350 c0 -13 33 -21 42 -12 6 6 -1 11 -16 14 -14 3 -26 2 -26 -2z"/>
 <path d="M2540 3294 c0 -11 -4 -24 -9 -29 -5 -6 -5 -19 -1 -30 5 -15 8 -9 14 24 4 24 4 46 1 49 -3 3 -5 -4 -5 -14z"/>
 <path d="M2890 3271 c-7 -21 -10 -45 -7 -52 3 -9 6 -7 6 6 1 11 8 32 15 47 8 15 11 30 7 32 -4 3 -14 -12 -21 -33z"/>
 <path d="M3850 3310 c-7 -14 -5 -59 3 -51 5 5 7 19 4 32 -2 13 -5 22 -7 19z"/>
 <path d="M4615 3290 c-3 -5 -2 -10 4 -10 5 0 18 -3 28 -7 16 -6 16 -5 4 10 -15 19 -27 22 -36 7z"/>
 <path d="M4970 3280 c0 -13 5 -20 13 -17 6 2 12 10 12 17 0 7 -6 15 -12 18 -8 2 -13 -5 -13 -18z"/>
 <path d="M1856 3281 c-4 -5 -3 -16 0 -24 3 -8 1 -18 -5 -22 -14 -8 -15 -361 -1 -370 6 -4 10 17 10 57 0 35 3 132 6 216 6 141 4 166 -10 143z"/>
 <path d="M2224 3180 c0 -63 1 -89 3 -57 2 31 2 83 0 115 -2 31 -3 5 -3 -58z"/>
 <path d="M4203 3233 c4 -3 10 -3 14 0 3 4 0 7 -7 7 -7 0 -10 -3 -7 -7z"/>
 <path d="M4200 3200 c0 -7 3 -10 7 -7 3 4 3 10 0 14 -4 3 -7 0 -7 -7z"/>
 <path d="M2513 3193 c-18 -7 -17 -143 0 -177 12 -23 14 -14 13 79 -1 58 -1 105 -1 104 0 0 -6 -3 -12 -6z"/>
 <path d="M1315 3079 c-10 -14 -1 -21 19 -13 9 3 13 10 10 15 -7 12 -21 11 -29 -2z"/>
 <path d="M1565 3081 c-3 -7 2 -11 14 -11 17 0 21 -6 21 -37 0 -26 3 -34 11 -26 6 6 9 26 7 44 -2 26 -8 35 -25 37 -11 2 -24 -2 -28 -7z"/>
 <path d="M4200 3004 c0 -27 3 -35 9 -25 5 8 8 23 5 34 -6 36 -14 31 -14 -9z"/>
 <path d="M2993 2993 c31 -2 83 -2 115 0 31 2 5 3 -58 3 -63 0 -89 -1 -57 -3z"/>
 <path d="M1594 2965 c-5 -20 -12 -25 -39 -25 -19 0 -37 -5 -40 -11 -5 -7 9 -9 41 -7 47 3 49 4 50 36 2 38 -3 42 -12 7z"/>
 <path d="M2882 2940 c0 -14 2 -19 5 -12 2 6 2 18 0 25 -3 6 -5 1 -5 -13z"/>
 <path d="M4200 2950 c0 -7 3 -10 7 -7 3 4 3 10 0 14 -4 3 -7 0 -7 -7z"/>
 <path d="M1310 2941 c0 -14 18 -23 31 -15 8 4 7 9 -2 15 -18 11 -29 11 -29 0z"/>
 <path d="M2520 2931 c0 -11 5 -23 10 -26 6 -4 10 5 10 19 0 14 -4 26 -10 26 -5 0 -10 -9 -10 -19z"/>
 <path d="M1385 2930 c-3 -5 3 -10 15 -10 12 0 18 5 15 10 -3 6 -10 10 -15 10 -5 0 -12 -4 -15 -10z"/>
 <path d="M3687 2934 c-4 -4 -7 -14 -7 -23 0 -11 3 -12 11 -4 6 6 10 16 7 23 -2 6 -7 8 -11 4z"/>
 <path d="M4620 2910 c0 -5 5 -10 11 -10 5 0 7 5 4 10 -3 6 -8 10 -11 10 -2 0 -4 -4 -4 -10z"/>
 <path d="M4976 2901 c-3 -5 1 -11 9 -15 9 -3 15 0 15 9 0 16 -16 20 -24 6z"/>
 <path d="M4763 2893 c4 -3 10 -3 14 0 3 4 0 7 -7 7 -7 0 -10 -3 -7 -7z"/>
 <path d="M4898 2893 c7 -3 16 -2 19 1 4 3 -2 6 -13 5 -11 0 -14 -3 -6 -6z"/>
 <path d="M2548 2862 c-4 -13 -1 -25 7 -30 7 -4 15 -16 18 -27 4 -15 5 -14 6 8 0 15 -3 27 -8 27 -5 0 -11 10 -13 23 l-3 22 -7 -23z"/>
 <path d="M2900 2870 c0 -7 3 -10 7 -7 3 4 3 10 0 14 -4 3 -7 0 -7 -7z"/>
 <path d="M3660 2848 c-12 -22 -12 -22 6 -6 10 10 15 20 12 24 -4 3 -12 -5 -18 -18z"/>
 <path d="M1850 2830 c0 -7 3 -10 7 -7 3 4 3 10 0 14 -4 3 -7 0 -7 -7z"/>
 <path d="M4591 2824 c0 -11 3 -14 6 -6 3 7 2 16 -1 19 -3 4 -6 -2 -5 -13z"/>
 <path d="M3310 2809 c0 -5 5 -7 10 -4 6 3 10 8 10 11 0 2 -4 4 -10 4 -5 0 -10 -5 -10 -11z"/>
 <path d="M3636 2794 c-4 -10 -1 -14 6 -12 15 5 23 28 10 28 -5 0 -13 -7 -16 -16z"/>
 <path d="M3890 2800 c0 -7 3 -10 7 -7 3 4 3 10 0 14 -4 3 -7 0 -7 -7z"/>
 <path d="M4950 2777 c-13 -36 -17 -42 -44 -81 -10 -15 -16 -30 -12 -34 8 -8 27 19 20 29 -2 4 6 16 19 26 13 10 22 24 19 31 -2 7 3 21 13 32 9 10 12 21 7 24 -5 3 -15 -9 -22 -27z"/>
 <path d="M4475 2750 c-3 -5 1 -10 10 -10 9 0 13 5 10 10 -3 6 -8 10 -10 10 -2 0 -7 -4 -10 -10z"/>
 <path d="M3594 2728 c-25 -37 -32 -57 -21 -52 7 2 18 16 24 31 14 28 11 43 -3 21z"/>
 <path d="M3926 2727 c3 -10 9 -15 12 -12 3 3 0 11 -7 18 -10 9 -11 8 -5 -6z"/>
 <path d="M1691 2716 c-9 -10 -9 -16 -1 -21 17 -10 37 12 24 25 -8 8 -15 6 -23 -4z"/>
 <path d="M2400 2710 c0 -7 3 -10 7 -7 3 4 3 10 0 14 -4 3 -7 0 -7 -7z"/>
 <path d="M3960 2673 c0 -4 13 -17 28 -28 l27 -19 -16 24 c-16 24 -39 38 -39 23z"/>
 <path d="M2660 2663 c0 -5 14 -22 30 -38 17 -16 30 -25 30 -19 0 5 -13 22 -30 37 -16 16 -30 25 -30 20z"/>
 <path d="M4834 2615 c-15 -14 -24 -28 -21 -31 6 -6 19 5 46 39 20 25 6 21 -25 -8z"/>
 <path d="M3470 2590 c-8 -5 -11 -12 -7 -16 4 -4 13 -2 19 4 15 15 7 24 -12 12z"/>
 <path d="M1684 2555 c-13 -33 3 -45 60 -45 65 0 82 15 28 25 -20 3 -47 13 -60 21 -20 13 -23 13 -28 -1z"/>
 <path d="M4108 2554 c5 -10 19 -18 31 -19 28 -2 27 2 -10 20 -29 15 -30 15 -21 -1z"/>
 <path d="M2805 2550 c3 -5 11 -10 16 -10 6 0 7 5 4 10 -3 6 -11 10 -16 10 -6 0 -7 -4 -4 -10z"/>
 <path d="M2395 2530 c-17 -18 -17 -20 -1 -20 9 0 19 7 23 15 9 25 -2 27 -22 5z"/>
 <path d="M2255 2520 c-3 -5 3 -10 15 -10 12 0 18 5 15 10 -3 6 -10 10 -15 10 -5 0 -12 -4 -15 -10z"/>
 <path d="M3280 2505 c-10 -12 -10 -15 3 -15 8 0 20 7 27 15 10 12 10 15 -3 15 -8 0 -20 -7 -27 -15z"/>
 <path d="M4575 2500 c-15 -6 -9 -8 22 -6 23 1 45 5 49 9 10 10 -46 8 -71 -3z"/>
 <path d="M3043 2483 c4 -3 10 -3 14 0 3 4 0 7 -7 7 -7 0 -10 -3 -7 -7z"/>
 <path d="M1840 2201 c0 -6 4 -13 10 -16 6 -3 7 1 4 9 -7 18 -14 21 -14 7z"/>
 <path d="M2195 2190 c-3 -5 -1 -10 4 -10 6 0 11 5 11 10 0 6 -2 10 -4 10 -3 0 -8 -4 -11 -10z"/>
 </g>
<g id="layer6" fill="#cce1ed" stroke="none">
 <path d="M3005 3730 c-3 -5 -24 -10 -45 -10 -21 0 -42 -4 -45 -10 -3 -5 -17 -10 -29 -10 -13 0 -29 -7 -36 -15 -8 -9 -9 -15 -2 -15 6 0 14 5 17 10 3 6 17 10 30 10 13 0 27 5 30 10 3 6 24 10 46 10 21 0 39 5 39 10 0 6 41 10 104 10 59 0 108 -4 111 -10 3 -5 24 -10 45 -10 21 0 42 -4 45 -10 3 -5 11 -10 17 -10 7 0 6 6 -2 15 -7 9 -29 15 -51 15 -21 0 -41 5 -44 10 -4 6 -53 10 -115 10 -62 0 -111 -4 -115 -10z"/>
 <path d="M4295 3730 c-3 -5 -21 -10 -40 -10 -19 0 -37 -4 -40 -10 -3 -5 -17 -10 -29 -10 -13 0 -29 -7 -36 -15 -8 -9 -9 -15 -2 -15 6 0 14 5 17 10 3 6 17 10 31 10 13 0 24 5 24 10 0 6 18 10 39 10 22 0 43 5 46 10 4 6 55 10 121 10 69 0 114 -4 114 -10 0 -5 14 -10 30 -10 17 0 38 -4 48 -9 9 -4 32 -13 50 -19 29 -9 32 -9 22 4 -7 8 -23 14 -36 14 -12 0 -26 5 -29 10 -3 6 -21 10 -40 10 -19 0 -37 5 -40 10 -4 6 -57 10 -125 10 -68 0 -121 -4 -125 -10z"/>
 <path d="M640 3714 c35 -7 149 -9 137 -2 -6 4 -43 7 -82 7 -38 -1 -63 -3 -55 -5z"/>
 <path d="M2070 3711 c0 -6 -14 -11 -32 -13 -17 -2 -33 -10 -36 -18 -4 -12 -2 -13 9 -2 7 6 23 12 35 12 13 0 26 5 29 10 10 15 308 13 325 -2 12 -11 12 -10 1 5 -12 15 -33 17 -172 17 -92 0 -159 -4 -159 -9z"/>
 <path d="M579 3683 c-12 -16 -12 -17 1 -7 8 6 22 14 30 17 13 5 12 6 -1 6 -9 1 -23 -7 -30 -16z"/>
 <path d="M815 3693 c11 -3 24 -9 30 -14 5 -5 14 -9 20 -9 5 0 1 7 -9 15 -11 8 -29 14 -40 14 -20 -1 -21 -1 -1 -6z"/>
 <path d="M2429 3686 c8 -9 11 -49 9 -117 l-3 -104 -47 -3 c-28 -2 -52 -10 -60 -19 -11 -15 -11 -16 7 -9 11 5 31 11 45 13 76 13 70 1 70 127 0 96 -3 115 -16 120 -14 5 -15 4 -5 -8z"/>
 <path d="M3360 3693 c8 -3 22 -11 30 -17 13 -10 13 -9 1 7 -7 9 -21 17 -30 16 -13 0 -14 -1 -1 -6z"/>
 <path d="M2810 3665 c-8 -9 -8 -15 -2 -15 12 0 26 19 19 26 -2 2 -10 -2 -17 -11z"/>
 <path d="M885 3660 c3 -5 8 -10 11 -10 2 0 4 5 4 10 0 6 -5 10 -11 10 -5 0 -7 -4 -4 -10z"/>
 <path d="M1932 3634 c-19 -20 -32 -37 -30 -40 2 -2 22 14 43 36 22 22 35 40 30 39 -6 0 -25 -16 -43 -35z"/>
 <path d="M3420 3666 c0 -2 7 -9 15 -16 13 -11 14 -10 9 4 -5 14 -24 23 -24 12z"/>
 <path d="M4095 3657 c-30 -18 -119 -91 -124 -100 -2 -5 -17 -25 -34 -44 -30 -34 -80 -123 -74 -130 2 -2 15 18 28 44 27 55 25 52 99 128 30 31 74 68 98 82 23 14 42 27 42 29 0 7 -14 3 -35 -9z"/>
 <path d="M4725 3660 c3 -5 8 -10 11 -10 3 0 2 5 -1 10 -3 6 -8 10 -11 10 -3 0 -2 -4 1 -10z"/>
 <path d="M2751 3635 c-32 -18 -131 -117 -131 -131 0 -6 -7 -17 -15 -24 -15 -12 -67 -111 -62 -117 2 -2 15 18 28 44 13 27 32 57 41 67 10 11 18 24 18 28 0 11 107 118 119 118 5 0 14 7 21 15 14 17 13 17 -19 0z"/>
 <path d="M3479 3632 c28 -20 125 -116 159 -158 l24 -29 -21 32 c-12 17 -21 34 -21 38 0 12 -113 115 -126 115 -8 0 -14 5 -14 10 0 6 -6 10 -12 10 -7 -1 -2 -9 11 -18z"/>
 <path d="M4775 3630 c10 -11 20 -18 23 -16 5 6 -23 36 -34 36 -4 0 1 -9 11 -20z"/>
 <path d="M4851 3570 c23 -22 44 -38 47 -36 6 7 -65 76 -78 76 -6 0 8 -18 31 -40z"/>
 <path d="M471 3493 c0 -50 2 -94 7 -97 4 -2 6 30 4 72 -4 117 -9 127 -11 25z"/>
 <path d="M1891 3571 c-7 -5 -12 -14 -10 -20 2 -6 10 -2 17 9 14 22 13 23 -7 11z"/>
 <path d="M1069 3498 c17 -18 31 -37 31 -42 0 -9 39 -46 48 -46 3 0 -4 10 -16 23 -12 13 -22 28 -22 33 0 12 -52 64 -64 64 -4 0 7 -15 23 -32z"/>
 <path d="M4915 3490 c10 -11 20 -18 23 -16 5 6 -23 36 -34 36 -4 0 1 -9 11 -20z"/>
 <path d="M905 3490 c-3 -5 -1 -10 4 -10 6 0 11 5 11 10 0 6 -2 10 -4 10 -3 0 -8 -4 -11 -10z"/>
 <path d="M970 3490 c0 -7 3 -10 7 -7 3 4 3 10 0 14 -4 3 -7 0 -7 -7z"/>
 <path d="M1870 3490 c-8 -5 -12 -12 -9 -15 4 -3 12 1 19 10 14 17 11 19 -10 5z"/>
 <path d="M990 3478 c0 -5 18 -27 40 -50 22 -24 40 -48 40 -54 0 -6 11 -21 25 -34 14 -13 25 -18 25 -12 0 7 -4 12 -8 12 -5 0 -15 12 -23 27 -15 30 -99 123 -99 111z"/>
 <path d="M890 3450 c0 -7 3 -10 7 -7 3 4 3 10 0 14 -4 3 -7 0 -7 -7z"/>
 <path d="M3100 3450 c-8 -5 -28 -10 -45 -11 -47 -1 -87 -31 -116 -87 -18 -33 -22 -49 -13 -45 8 3 14 11 14 17 0 26 25 64 55 82 26 16 108 36 140 34 75 -3 106 -17 163 -72 l60 -58 145 0 c112 0 151 4 176 16 24 12 30 19 22 27 -6 6 -11 21 -11 33 0 12 -8 28 -17 35 -16 12 -17 12 -7 -1 6 -8 14 -29 17 -46 5 -26 2 -33 -19 -43 -30 -13 -262 -15 -297 -2 -13 5 -47 32 -76 60 -42 41 -59 51 -86 51 -19 0 -37 5 -40 10 -8 13 -45 13 -65 0z"/>
 <path d="M4930 3456 c0 -2 8 -10 18 -17 15 -13 16 -12 3 4 -13 16 -21 21 -21 13z"/>
 <path d="M2278 3416 c-16 -13 -28 -30 -28 -38 0 -8 -6 -20 -12 -27 -11 -10 -10 -11 5 -6 9 4 17 14 17 23 0 9 12 29 27 44 33 34 28 36 -9 4z"/>
 <path d="M4378 3422 c-21 -2 -38 -7 -38 -13 0 -5 -8 -9 -17 -9 -10 -1 -30 -18 -45 -40 -15 -21 -21 -37 -14 -34 7 3 19 16 26 30 20 36 65 54 135 54 64 0 111 -16 136 -47 21 -27 39 -61 39 -75 0 -7 9 -19 20 -25 16 -11 18 -10 14 2 -4 8 -10 15 -15 15 -5 0 -9 9 -9 20 0 11 -4 20 -10 20 -5 0 -10 7 -10 15 0 20 -45 65 -65 65 -8 0 -15 4 -15 9 0 10 -76 18 -132 13z"/>
 <path d="M4960 3402 c0 -6 5 -14 10 -17 6 -3 10 -17 10 -31 0 -13 6 -33 12 -44 10 -16 10 -24 0 -41 -11 -18 -11 -20 0 -17 17 6 23 57 9 71 -6 6 -11 23 -11 38 0 15 -7 32 -15 39 -9 8 -15 9 -15 2z"/>
 <path d="M491 3354 c-1 -16 6 -39 15 -50 15 -19 16 -19 9 1 -4 11 -11 34 -15 50 l-8 30 -1 -31z"/>
 <path d="M1160 3372 c0 -5 7 -15 15 -22 8 -7 15 -9 15 -6 0 4 -7 14 -15 22 -8 9 -15 11 -15 6z"/>
 <path d="M1850 3345 c-7 -9 -10 -18 -7 -21 3 -3 10 4 17 15 13 25 8 27 -10 6z"/>
 <path d="M3840 3345 c0 -8 2 -15 4 -15 2 0 6 7 10 15 3 8 1 15 -4 15 -6 0 -10 -7 -10 -15z"/>
 <path d="M2520 3309 c0 -5 5 -7 10 -4 6 3 10 8 10 11 0 2 -4 4 -10 4 -5 0 -10 -5 -10 -11z"/>
 <path d="M4240 3295 c-11 -13 -10 -14 4 -9 9 3 16 10 16 15 0 13 -6 11 -20 -6z"/>
 <path d="M1180 3285 c-7 -8 -9 -15 -6 -15 4 0 14 7 22 15 9 8 11 15 6 15 -5 0 -15 -7 -22 -15z"/>
 <path d="M910 3282 c0 -5 7 -15 15 -22 8 -7 15 -8 15 -2 0 5 -7 15 -15 22 -8 7 -15 8 -15 2z"/>
 <path d="M3820 3269 c0 -5 5 -7 10 -4 6 3 10 8 10 11 0 2 -4 4 -10 4 -5 0 -10 -5 -10 -11z"/>
 <path d="M2510 3230 c-6 -12 -9 -24 -7 -27 3 -2 11 5 17 17 6 12 9 24 7 27 -3 2 -11 -5 -17 -17z"/>
 <path d="M2911 3223 l-1 -33 403 -2 402 -3 3 -107 c2 -70 -1 -108 -8 -108 -5 0 -10 -15 -10 -34 0 -19 -4 -38 -10 -41 -5 -3 -10 -19 -10 -34 0 -15 -6 -33 -12 -41 -11 -12 -10 -12 5 -1 9 7 17 24 17 37 0 12 5 26 10 29 6 3 10 21 10 39 0 17 5 37 10 42 7 7 10 54 8 120 l-3 109 -402 3 -402 2 -4 28 c-4 25 -4 25 -6 -5z"/>
 <path d="M535 3220 c3 -5 8 -10 11 -10 3 0 2 5 -1 10 -3 6 -8 10 -11 10 -3 0 -2 -4 1 -10z"/>
 <path d="M4225 3220 c-3 -5 -1 -10 4 -10 6 0 11 5 11 10 0 6 -2 10 -4 10 -3 0 -8 -4 -11 -10z"/>
 <path d="M945 3190 c3 -5 8 -10 11 -10 2 0 4 5 4 10 0 6 -5 10 -11 10 -5 0 -7 -4 -4 -10z"/>
 <path d="M540 3156 c0 -2 8 -10 18 -17 15 -13 16 -12 3 4 -13 16 -21 21 -21 13z"/>
 <path d="M1307 3093 c-13 -13 -7 -25 7 -14 10 8 59 11 159 9 80 -2 143 0 140 5 -5 9 -297 10 -306 0z"/>
 <path d="M975 3060 c3 -5 8 -10 11 -10 3 0 2 5 -1 10 -3 6 -8 10 -11 10 -3 0 -2 -4 1 -10z"/>
 <path d="M580 3010 c0 -5 5 -10 11 -10 5 0 7 5 4 10 -3 6 -8 10 -11 10 -2 0 -4 -4 -4 -10z"/>
 <path d="M2500 2981 c0 -5 7 -15 17 -22 15 -13 15 -12 4 9 -12 23 -21 28 -21 13z"/>
 <path d="M3328 2979 c14 -15 16 -85 2 -94 -5 -3 -10 -14 -10 -24 0 -10 -18 -39 -40 -64 -34 -38 -50 -48 -97 -58 -31 -7 -51 -15 -44 -17 7 -2 34 2 59 9 55 15 132 88 132 126 0 12 5 23 10 23 6 0 10 22 10 49 0 37 -4 50 -17 56 -15 5 -16 4 -5 -6z"/>
 <path d="M4226 2975 c4 -8 8 -15 10 -15 2 0 4 7 4 15 0 8 -4 15 -10 15 -5 0 -7 -7 -4 -15z"/>
 <path d="M600 2950 c0 -5 5 -10 11 -10 5 0 7 5 4 10 -3 6 -8 10 -11 10 -2 0 -4 -4 -4 -10z"/>
 <path d="M1300 2930 c0 -5 5 -10 11 -10 5 0 7 5 4 10 -3 6 -8 10 -11 10 -2 0 -4 -4 -4 -10z"/>
 <path d="M1605 2930 c-3 -5 -1 -10 4 -10 6 0 11 5 11 10 0 6 -2 10 -4 10 -3 0 -8 -4 -11 -10z"/>
 <path d="M3820 2930 c0 -5 5 -10 11 -10 5 0 7 5 4 10 -3 6 -8 10 -11 10 -2 0 -4 -4 -4 -10z"/>
 <path d="M1020 2920 c0 -7 3 -10 7 -7 3 4 3 10 0 14 -4 3 -7 0 -7 -7z"/>
 <path d="M4600 2915 c0 -31 -44 -108 -70 -121 -25 -13 -47 -34 -37 -34 32 0 97 65 97 98 0 12 4 22 9 22 5 0 11 9 14 20 5 20 12 20 194 18 l188 -3 3 -39 c2 -21 -1 -43 -7 -49 -6 -6 -11 -20 -11 -31 0 -11 -8 -29 -17 -40 -18 -21 -18 -21 5 -2 12 11 22 29 22 41 0 11 5 26 11 32 5 5 9 30 7 54 l-3 44 -202 3 c-177 2 -203 0 -203 -13z"/>
 <path d="M4238 2909 c6 -7 12 -21 12 -31 0 -23 55 -85 94 -105 29 -15 30 -15 17 0 -7 10 -19 17 -25 17 -17 0 -50 38 -70 82 -9 20 -22 40 -29 44 -9 5 -9 4 1 -7z"/>
 <path d="M2520 2888 c0 -9 7 -22 17 -29 15 -13 15 -12 3 11 -17 34 -20 36 -20 18z"/>
 <path d="M1028 2878 c7 -7 12 -23 13 -37 0 -15 3 -20 6 -13 7 19 -6 62 -19 62 -9 0 -9 -3 0 -12z"/>
 <path d="M2905 2880 c3 -5 8 -10 11 -10 2 0 4 5 4 10 0 6 -5 10 -11 10 -5 0 -7 -4 -4 -10z"/>
 <path d="M2920 2840 c21 -43 83 -100 106 -100 13 0 26 -4 29 -10 3 -5 14 -10 23 -10 25 1 -27 29 -54 30 -21 0 -84 58 -84 77 0 6 -7 17 -17 24 -15 13 -15 12 -3 -11z"/>
 <path d="M3840 2855 c0 -2 9 -20 20 -40 11 -20 20 -40 20 -46 0 -18 61 -102 113 -156 30 -31 76 -64 116 -83 36 -18 74 -36 83 -41 10 -5 29 -9 42 -9 14 0 28 -4 31 -10 4 -6 72 -10 170 -10 98 0 166 4 170 10 3 6 15 10 26 10 27 0 99 23 99 32 0 5 9 8 20 8 11 0 23 7 26 15 4 8 12 15 18 15 7 0 29 16 50 35 21 19 36 35 32 35 -9 0 -101 -71 -104 -81 -2 -5 -10 -9 -18 -9 -8 0 -23 -4 -34 -10 -11 -5 -29 -14 -40 -20 -11 -5 -33 -10 -49 -10 -17 0 -33 -4 -36 -10 -4 -6 -68 -10 -160 -10 -92 0 -156 4 -160 10 -3 6 -18 10 -32 10 -15 0 -63 18 -107 40 -120 59 -199 140 -256 264 -26 57 -40 79 -40 61z"/>
 <path d="M2540 2833 c0 -6 8 -17 18 -24 16 -13 16 -13 2 6 -8 11 -16 22 -17 24 -2 2 -3 0 -3 -6z"/>
 <path d="M1057 2768 c3 -18 8 -42 13 -53 5 -11 11 -27 13 -35 3 -8 6 -3 6 12 1 15 -3 30 -9 33 -5 3 -10 22 -10 41 0 19 -4 34 -8 34 -5 0 -7 -15 -5 -32z"/>
 <path d="M3650 2785 c-7 -9 -8 -15 -2 -15 5 0 12 7 16 15 3 8 4 15 2 15 -2 0 -9 -7 -16 -15z"/>
 <path d="M2560 2781 c0 -5 5 -13 10 -16 6 -3 10 -2 10 4 0 5 -4 13 -10 16 -5 3 -10 2 -10 -4z"/>
 <path d="M655 2770 c3 -5 8 -10 11 -10 2 0 4 5 4 10 0 6 -5 10 -11 10 -5 0 -7 -4 -4 -10z"/>
 <path d="M1827 2760 c-13 -16 -14 -20 -3 -20 8 0 17 7 20 16 9 25 2 26 -17 4z"/>
 <path d="M4382 2765 c7 -8 87 -9 95 -2 3 4 -18 7 -47 7 -29 0 -51 -2 -48 -5z"/>
 <path d="M2230 2751 c0 -6 6 -11 13 -12 6 0 48 -1 91 -2 l80 -2 12 -48 c10 -39 10 -61 0 -110 l-13 -62 -90 -3 -90 -3 -12 -51 c-6 -28 -9 -53 -6 -56 7 -7 25 45 25 73 0 24 2 24 93 27 l92 3 3 30 c2 17 8 34 13 39 12 13 12 113 -1 121 -5 3 -10 15 -10 25 0 25 -26 32 -108 29 -38 -1 -74 1 -80 5 -7 4 -12 2 -12 -3z"/>
 <path d="M1682 2742 c-9 -6 -12 -38 -10 -123 l3 -114 71 -3 c62 -2 73 -6 82 -25 8 -16 11 -18 11 -6 1 27 -22 38 -89 41 l-65 3 0 110 0 110 60 6 60 6 -55 1 c-30 1 -61 -2 -68 -6z"/>
 <path d="M2580 2741 c0 -6 5 -11 10 -11 6 0 10 -6 10 -13 0 -13 150 -167 163 -167 4 0 -29 34 -73 76 -44 42 -80 82 -80 89 0 7 -7 18 -15 25 -10 9 -15 9 -15 1z"/>
 <path d="M3620 2735 c-11 -13 -10 -14 4 -9 9 3 16 10 16 15 0 13 -6 11 -20 -6z"/>
 <path d="M4939 2713 c-29 -36 -59 -83 -54 -83 10 0 35 27 35 37 0 5 9 19 21 32 12 12 19 24 17 27 -3 2 -11 -4 -19 -13z"/>
 <path d="M660 2710 c0 -5 5 -10 11 -10 5 0 7 5 4 10 -3 6 -8 10 -11 10 -2 0 -4 -4 -4 -10z"/>
 <path d="M3545 2640 c-38 -39 -74 -70 -80 -70 -7 0 -22 -12 -36 -26 l-24 -26 38 23 c41 26 182 158 175 164 -2 3 -35 -27 -73 -65z"/>
 <path d="M1090 2635 c7 -9 15 -13 17 -11 7 7 -7 26 -19 26 -6 0 -6 -6 2 -15z"/>
 <path d="M1115 2570 c3 -5 8 -10 11 -10 3 0 2 5 -1 10 -3 6 -8 10 -11 10 -3 0 -2 -4 1 -10z"/>
 <path d="M700 2552 c0 -12 19 -26 26 -19 2 2 -2 10 -11 17 -9 8 -15 8 -15 2z"/>
 <path d="M2780 2546 c0 -2 8 -10 18 -17 15 -13 16 -12 3 4 -13 16 -21 21 -21 13z"/>
 <path d="M2825 2521 c10 -18 68 -41 101 -41 18 0 36 -4 39 -10 4 -6 62 -10 140 -10 78 0 136 4 140 10 3 6 21 10 40 10 19 0 37 5 40 10 3 6 17 10 29 10 13 0 30 7 37 17 13 14 12 15 -6 6 -32 -17 -89 -33 -116 -33 -14 0 -30 -5 -36 -11 -6 -6 -52 -9 -129 -5 -148 5 -199 13 -241 37 -37 21 -47 23 -38 10z"/>
 <path d="M1135 2490 c3 -5 8 -10 11 -10 3 0 2 5 -1 10 -3 6 -8 10 -11 10 -3 0 -2 -4 1 -10z"/>
 <path d="M1828 2434 c-5 -4 -8 -23 -8 -43 1 -30 2 -33 11 -18 11 19 8 73 -3 61z"/>
 <path d="M1155 2400 c3 -5 8 -10 11 -10 2 0 4 5 4 10 0 6 -5 10 -11 10 -5 0 -7 -4 -4 -10z"/>
 <path d="M691 2374 c-7 -8 -11 -17 -9 -20 3 -2 13 5 23 16 10 11 14 20 9 20 -5 -1 -15 -8 -23 -16z"/>
 <path d="M603 2273 c4 -3 10 -3 14 0 3 4 0 7 -7 7 -7 0 -10 -3 -7 -7z"/>
 <path d="M1195 2260 c3 -5 8 -10 11 -10 2 0 4 5 4 10 0 6 -5 10 -11 10 -5 0 -7 -4 -4 -10z"/>
 <path d="M673 2253 c9 -2 25 -2 35 0 9 3 1 5 -18 5 -19 0 -27 -2 -17 -5z"/>
 <path d="M783 2233 c15 -2 37 -2 50 0 12 2 0 4 -28 4 -27 0 -38 -2 -22 -4z"/>
 <path d="M869 2228 c10 -13 28 -18 67 -18 29 0 56 -4 59 -10 3 -5 36 -9 73 -8 l67 2 -60 3 c-33 2 -64 8 -69 14 -6 5 -35 9 -66 9 -31 0 -62 6 -70 13 -12 10 -12 9 -1 -5z"/>
 <path d="M1194 2198 c-4 -7 -3 -8 4 -4 12 7 16 16 8 16 -3 0 -8 -5 -12 -12z"/>
 <path d="M1150 2190 c0 -7 3 -10 7 -7 3 4 3 10 0 14 -4 3 -7 0 -7 -7z"/>
 <path d="M2208 2189 c-3 -10 -47 -13 -187 -11 -100 1 -187 4 -192 7 -5 4 -9 1 -9 -4 0 -7 30 -11 80 -11 43 0 91 -5 105 -12 19 -8 31 -8 50 0 19 9 30 9 45 0 14 -9 25 -9 45 0 14 7 34 12 45 12 19 0 36 17 27 26 -3 3 -7 0 -9 -7z"/>
 <path d="M1223 1893 c4 -3 10 -3 14 0 3 4 0 7 -7 7 -7 0 -10 -3 -7 -7z"/>
 <path d="M963 1873 c4 -3 10 -3 14 0 3 4 0 7 -7 7 -7 0 -10 -3 -7 -7z"/>
 <path d="M1295 1830 c3 -5 8 -10 11 -10 3 0 2 5 -1 10 -3 6 -8 10 -11 10 -3 0 -2 -4 1 -10z"/>
 <path d="M910 1808 c-12 -22 -12 -22 6 -6 10 10 15 20 12 24 -4 3 -12 -5 -18 -18z"/>
 <path d="M1315 1790 c3 -5 8 -10 11 -10 3 0 2 5 -1 10 -3 6 -8 10 -11 10 -3 0 -2 -4 1 -10z"/>
 <path d="M870 1730 c0 -7 3 -10 7 -7 3 4 3 10 0 14 -4 3 -7 0 -7 -7z"/>
 <path d="M1337 1643 c-4 -3 -7 -13 -7 -22 1 -13 3 -13 11 2 11 19 8 33 -4 20z"/>
 <path d="M885 1610 c3 -5 8 -10 11 -10 3 0 2 5 -1 10 -3 6 -8 10 -11 10 -3 0 -2 -4 1 -10z"/>
 <path d="M895 1560 c3 -5 8 -10 11 -10 3 0 2 5 -1 10 -3 6 -8 10 -11 10 -3 0 -2 -4 1 -10z"/>
 <path d="M973 1473 c4 -3 10 -3 14 0 3 4 0 7 -7 7 -7 0 -10 -3 -7 -7z"/>
 </g>
<g id="layer7" fill="#28166c" stroke="none">
 <path d="M675 3701 c-3 -5 -20 -13 -37 -17 -18 -3 -41 -12 -53 -18 -34 -19 -75 -68 -75 -91 0 -11 -7 -31 -17 -44 -12 -19 -14 -28 -5 -42 7 -10 14 -37 18 -61 3 -24 15 -78 25 -121 11 -43 19 -83 17 -90 -1 -7 4 -23 11 -36 7 -12 11 -31 8 -42 -3 -10 2 -24 9 -30 8 -7 14 -19 13 -28 -1 -9 2 -27 8 -41 17 -40 34 -93 38 -115 2 -11 8 -33 13 -50 6 -16 16 -50 23 -75 6 -25 15 -56 19 -70 8 -25 17 -58 42 -155 7 -27 13 -79 13 -115 0 -58 -3 -69 -26 -92 -27 -27 -101 -53 -124 -44 -21 8 -26 -6 -9 -25 9 -10 22 -15 30 -12 8 3 26 -3 40 -12 19 -12 38 -15 63 -11 24 3 47 0 66 -10 19 -10 43 -14 66 -10 23 4 42 0 56 -9 12 -9 41 -15 65 -15 24 0 85 -2 136 -6 53 -3 92 -2 92 3 0 5 -7 18 -15 29 -8 10 -15 33 -15 51 0 17 -4 35 -10 38 -5 3 -10 19 -10 36 0 16 -4 29 -10 29 -5 0 -10 15 -10 34 0 19 -4 37 -9 40 -5 3 -12 22 -15 41 -3 19 -9 51 -12 70 -3 19 -11 35 -16 35 -5 0 -8 12 -7 28 1 15 -2 38 -8 52 -18 43 -34 98 -31 107 1 4 -4 19 -11 32 -7 12 -11 31 -8 42 3 10 -1 23 -8 29 -7 6 -16 34 -20 63 -4 29 -12 60 -17 70 -5 10 -10 37 -12 60 -2 23 -8 53 -14 67 -5 14 -18 52 -27 85 -10 33 -21 64 -26 70 -5 5 -9 21 -9 36 0 14 -5 40 -11 57 -8 24 -7 37 5 61 33 63 104 47 174 -37 21 -24 43 -50 50 -57 6 -8 12 -17 12 -22 0 -5 9 -15 20 -23 11 -8 20 -22 20 -32 0 -19 15 -24 25 -8 8 13 -35 91 -67 121 -10 9 -18 21 -18 27 0 32 -207 212 -244 212 -8 0 -18 5 -21 10 -3 6 -21 10 -39 10 -18 0 -41 7 -52 15 -22 16 -50 19 -59 6z"/>
 <path d="M1018 1877 c-55 -32 -105 -83 -94 -94 3 -3 -2 -11 -11 -18 -13 -10 -16 -27 -14 -85 3 -78 14 -113 48 -147 44 -46 90 -63 163 -63 74 0 94 7 148 55 48 42 64 87 62 170 -1 57 -6 76 -29 110 -58 87 -189 121 -273 72z"/>
 </g>
<g id="layer8" fill="#047bc1" stroke="none">
 <path d="M3065 3720 c-3 -5 -25 -10 -47 -10 -25 0 -49 -7 -61 -17 -14 -13 -21 -14 -24 -6 -3 8 -19 4 -53 -13 -26 -13 -55 -24 -63 -24 -8 0 -17 -7 -21 -15 -3 -8 -13 -15 -23 -15 -10 0 -32 -14 -50 -30 -18 -17 -35 -30 -38 -30 -10 0 -35 -27 -35 -38 0 -5 -9 -17 -20 -27 -11 -10 -20 -27 -20 -37 0 -11 -4 -16 -10 -13 -5 3 -10 -3 -10 -14 0 -12 -4 -21 -10 -21 -5 0 -10 -8 -10 -19 0 -10 -7 -24 -15 -31 -9 -7 -13 -21 -10 -31 8 -24 -5 -110 -15 -104 -4 3 -11 -2 -14 -11 -8 -21 -8 -26 2 -21 4 3 7 -43 8 -101 1 -77 -2 -99 -9 -82 -5 15 -11 20 -14 12 -3 -7 5 -28 16 -48 12 -19 21 -48 21 -65 0 -16 5 -29 10 -29 6 0 10 -9 10 -20 0 -11 4 -20 9 -20 4 0 11 -17 13 -37 5 -33 78 -163 78 -138 0 5 24 -15 53 -44 83 -84 92 -91 113 -91 11 0 38 -9 59 -20 22 -12 49 -18 60 -16 12 3 33 -1 49 -9 32 -17 60 -20 51 -6 -3 6 8 8 27 6 95 -12 138 -13 143 -4 4 5 17 9 29 9 13 0 29 7 36 15 7 8 19 15 27 15 13 0 13 -3 3 -16 -12 -13 -10 -14 16 -3 16 7 33 16 38 21 6 4 20 8 32 8 24 0 48 22 36 35 -4 5 -2 5 4 2 6 -3 18 3 27 14 10 11 22 17 27 14 6 -3 10 1 10 9 0 9 3 16 8 16 4 0 23 14 42 31 19 17 30 28 23 25 -23 -12 17 52 43 69 15 10 23 22 20 31 -3 8 5 24 19 36 28 24 35 49 8 27 -15 -12 -16 -12 -8 1 4 8 17 28 29 44 11 16 15 26 8 22 -7 -4 -12 -1 -12 8 0 8 5 18 10 21 6 4 8 11 4 16 -3 5 1 22 9 37 10 20 12 53 9 115 l-5 88 -401 -1 c-323 -1 -401 2 -400 12 0 7 4 31 7 52 7 47 -7 37 -21 -14 -8 -26 -10 -29 -11 -12 -1 28 53 147 83 183 12 14 27 24 34 21 7 -2 25 4 39 14 29 19 125 25 158 10 11 -5 27 -9 35 -10 22 -1 70 -41 70 -57 0 -11 3 -11 10 1 5 8 10 12 11 8 1 -5 2 -11 3 -15 3 -20 19 -33 37 -33 11 0 18 -3 16 -7 -6 -10 269 -1 278 9 4 4 4 15 0 25 -5 10 -10 26 -12 37 -3 16 0 15 17 -5 10 -13 19 -19 20 -13 0 6 -9 19 -20 29 -12 10 -30 35 -42 54 -29 49 -59 81 -69 75 -5 -3 -10 0 -10 5 -1 6 -2 16 -3 22 -1 13 -38 41 -45 34 -2 -3 4 -12 15 -21 18 -15 17 -15 -6 -1 -14 8 -25 19 -25 25 0 17 -13 25 -45 27 -17 2 -42 13 -56 26 -17 16 -24 18 -24 8 0 -11 -2 -11 -8 -1 -5 7 -16 10 -25 7 -8 -4 -26 -1 -39 6 -13 7 -43 15 -68 17 -25 2 -49 8 -54 13 -13 12 -83 12 -91 -1z m288 -743 c11 -17 2 -108 -11 -116 -6 -4 -13 -17 -15 -29 -4 -26 -65 -91 -87 -92 -8 0 -22 -6 -31 -13 -21 -16 -143 -14 -163 2 -7 6 -20 9 -28 6 -21 -8 -113 99 -104 120 3 9 2 13 -4 10 -6 -4 -10 9 -10 30 0 22 -4 34 -10 30 -5 -3 -10 3 -10 15 0 13 4 19 11 14 7 -4 9 0 5 14 -6 17 -2 21 21 25 55 10 428 -4 436 -16z m-528 -427 c3 -5 2 -10 -4 -10 -5 0 -13 5 -16 10 -3 6 -2 10 4 10 5 0 13 -4 16 -10z"/>
 <path d="M4335 3720 c-3 -5 -17 -10 -29 -10 -13 0 -29 -6 -35 -14 -6 -7 -33 -16 -59 -20 -26 -4 -55 -8 -65 -10 -9 -1 -23 -9 -30 -16 -10 -12 -9 -12 8 0 19 13 19 13 3 -4 -9 -10 -28 -20 -43 -21 -28 -4 -55 -22 -55 -38 0 -10 -25 -35 -71 -72 -13 -11 -37 -46 -52 -77 -16 -32 -33 -60 -38 -64 -5 -3 -7 -10 -3 -15 3 -5 -2 -21 -11 -36 -9 -14 -12 -22 -6 -19 18 12 13 -30 -9 -69 -16 -29 -20 -54 -20 -140 0 -64 4 -106 11 -111 6 -3 9 -15 6 -25 -3 -10 -1 -22 5 -25 5 -3 7 -12 4 -20 -3 -7 -1 -16 4 -19 4 -3 11 -23 15 -45 4 -22 12 -40 20 -40 7 0 13 -12 13 -27 0 -17 8 -33 21 -41 11 -8 21 -21 21 -28 0 -8 4 -14 10 -14 5 0 7 -7 4 -15 -4 -11 -2 -13 9 -9 16 6 50 -33 41 -48 -3 -4 -1 -8 4 -8 5 0 26 -16 46 -35 36 -33 65 -47 50 -24 -3 6 8 3 25 -5 17 -9 31 -21 31 -26 0 -6 8 -10 19 -10 10 0 24 -7 31 -15 7 -8 27 -15 45 -15 17 0 34 -2 37 -6 12 -11 293 -8 313 4 17 10 15 11 -15 7 -27 -4 -30 -3 -15 4 29 14 78 14 69 0 -3 -6 5 -4 18 5 14 9 32 14 40 11 9 -4 28 7 46 24 18 16 32 27 32 23 0 -3 9 5 19 17 11 13 24 20 29 17 6 -3 9 2 8 11 0 9 5 18 13 21 9 3 11 0 6 -8 -5 -9 -4 -11 4 -6 6 4 9 12 6 17 -4 5 -1 9 4 9 6 0 17 15 24 33 8 17 22 39 33 47 17 13 17 13 -1 -10 l-20 -25 21 18 c13 11 20 26 17 36 -6 22 22 80 43 88 19 7 18 52 -1 59 -13 5 -13 9 -3 21 11 13 -10 15 -169 12 -107 -3 -179 -8 -175 -13 3 -5 -3 -6 -12 -3 -13 5 -17 3 -13 -6 3 -7 -1 -21 -8 -30 -7 -10 -11 -28 -8 -40 3 -16 2 -18 -5 -8 -11 15 -27 -2 -17 -19 3 -5 -1 -10 -9 -10 -9 0 -16 -4 -16 -10 0 -5 -6 -10 -14 -10 -7 0 -19 -7 -26 -15 -14 -17 -45 -21 -35 -5 8 14 -18 13 -32 -1 -16 -16 -88 -2 -109 22 -9 10 -23 19 -31 19 -7 0 -13 6 -13 13 0 7 -8 17 -18 24 -21 12 -57 116 -47 133 3 5 3 15 -1 21 -4 8 -9 7 -15 -2 -6 -9 -9 -1 -9 24 0 23 4 36 10 32 6 -4 11 29 12 92 2 147 2 150 22 172 12 13 14 21 7 21 -8 0 -5 10 8 26 11 15 18 30 15 35 -3 5 11 16 31 25 20 8 33 19 30 24 -3 6 -2 10 4 10 5 0 11 -5 13 -12 3 -8 11 -9 24 -3 30 13 67 15 81 3 7 -5 20 -8 28 -4 27 10 92 -30 103 -64 6 -17 26 -44 44 -60 l32 -30 153 0 c134 0 153 2 153 16 0 10 6 14 15 10 8 -3 15 -1 15 4 0 6 -4 10 -10 10 -5 0 -17 14 -26 31 -15 29 -15 31 0 26 23 -9 20 6 -5 21 -14 9 -19 20 -16 33 3 12 -2 23 -14 30 -11 5 -19 15 -17 22 3 14 -19 55 -39 75 -19 20 -16 2 4 -20 14 -16 14 -18 1 -13 -8 3 -23 24 -33 45 -18 40 -38 55 -58 43 -7 -3 -9 -2 -4 2 4 5 0 17 -10 27 -16 18 -39 25 -29 9 4 -5 -3 -7 -15 -4 -12 4 -18 11 -15 20 4 10 1 13 -12 9 -10 -3 -35 3 -56 15 -21 11 -34 15 -30 8 5 -9 1 -10 -12 -6 -10 3 -39 11 -64 18 -25 6 -53 15 -62 20 -24 12 -135 11 -143 -1z m486 -137 c13 -16 12 -17 -3 -4 -17 13 -22 21 -14 21 2 0 10 -8 17 -17z m-604 -350 c-4 -3 -10 -3 -14 0 -3 4 0 7 7 7 7 0 10 -3 7 -7z m-10 -40 c-4 -3 -7 0 -7 7 0 7 3 10 7 7 3 -4 3 -10 0 -14z m0 -250 c-4 -3 -7 0 -7 7 0 7 3 10 7 7 3 -4 3 -10 0 -14z m570 -50 c-4 -3 -10 -3 -14 0 -3 4 0 7 7 7 7 0 10 -3 7 -7z m140 1 c-3 -3 -12 -4 -19 -1 -8 3 -5 6 6 6 11 1 17 -2 13 -5z"/>
 <path d="M2146 3701 c-9 -13 -56 -19 -63 -8 -4 6 -11 4 -18 -6 -7 -9 -26 -18 -43 -20 -36 -4 -102 -51 -102 -73 0 -8 -4 -22 -9 -32 -14 -25 -24 -54 -28 -82 -2 -14 -8 -29 -14 -34 -12 -13 -12 -29 1 -21 6 3 10 -1 10 -10 0 -9 -4 -13 -10 -10 -6 4 -10 -5 -10 -20 0 -15 4 -24 10 -20 6 4 9 -9 9 -32 -1 -23 -3 -29 -6 -15 -6 29 -23 18 -23 -14 0 -16 4 -23 11 -18 8 5 10 -34 5 -147 -3 -85 -6 -182 -6 -217 0 -44 -3 -61 -11 -56 -8 5 -10 -13 -8 -62 l4 -68 -79 0 c-61 -1 -80 -4 -84 -16 -4 -13 -3 -13 10 -2 13 10 18 10 24 1 4 -7 0 -17 -8 -23 -11 -8 -17 -32 -20 -73 -1 -34 -1 -61 2 -60 3 1 14 -4 25 -10 11 -6 36 -14 55 -18 63 -13 73 -27 77 -101 2 -36 -1 -72 -6 -78 -10 -12 0 -151 13 -163 4 -4 37 -6 72 -4 41 2 70 -2 79 -9 12 -10 21 -10 44 0 23 9 33 9 49 -1 17 -11 25 -11 45 0 14 7 30 11 35 7 22 -13 30 26 33 154 1 74 4 143 6 153 6 23 52 42 67 27 17 -17 91 -12 109 8 23 26 39 157 23 197 -5 15 -19 17 -99 14 l-92 -4 -2 110 c-1 61 2 138 6 172 4 34 4 60 -1 57 -4 -3 -8 45 -8 106 0 77 3 109 11 104 7 -4 10 6 8 29 -2 20 0 39 4 43 11 11 8 26 -3 19 -11 -7 -13 6 -4 29 3 9 10 13 15 10 5 -3 9 -1 9 5 0 16 89 54 112 47 12 -3 29 0 37 7 12 10 13 9 7 -2 -6 -9 -4 -12 5 -9 11 4 14 30 14 114 l0 109 -30 3 c-16 2 -34 8 -40 13 -15 15 -28 10 -15 -6 15 -18 10 -19 -27 -4 -34 14 -170 22 -177 10z m284 -42 c0 -5 -4 -9 -10 -9 -5 0 -10 7 -10 16 0 8 5 12 10 9 6 -3 10 -10 10 -16z m-573 -836 c-4 -3 -7 0 -7 7 0 7 3 10 7 7 3 -4 3 -10 0 -14z m550 -120 c-4 -3 -7 0 -7 7 0 7 3 10 7 7 3 -4 3 -10 0 -14z"/>
 <path d="M3295 3700 c3 -5 11 -10 16 -10 6 0 7 5 4 10 -3 6 -11 10 -16 10 -6 0 -7 -4 -4 -10z"/>
 <path d="M4220 3699 c0 -5 5 -7 10 -4 6 3 10 8 10 11 0 2 -4 4 -10 4 -5 0 -10 -5 -10 -11z"/>
 <path d="M4283 3383 c4 -3 10 -3 14 0 3 4 0 7 -7 7 -7 0 -10 -3 -7 -7z"/>
 <path d="M3670 3345 c-11 -13 -10 -14 4 -9 9 3 16 10 16 15 0 13 -6 11 -20 -6z"/>
 <path d="M2528 3304 c-5 -4 -8 -16 -8 -28 0 -14 3 -17 11 -9 6 6 9 19 7 28 -1 9 -6 13 -10 9z"/>
 <path d="M3840 3270 c0 -7 3 -10 7 -7 3 4 3 10 0 14 -4 3 -7 0 -7 -7z"/>
 <path d="M4630 3270 c0 -7 3 -10 7 -7 3 4 3 10 0 14 -4 3 -7 0 -7 -7z"/>
 <path d="M1840 3244 c0 -8 5 -12 10 -9 6 3 10 10 10 16 0 5 -4 9 -10 9 -5 0 -10 -7 -10 -16z"/>
 <path d="M1345 3081 c3 -5 -4 -12 -15 -16 -17 -5 -20 -15 -20 -60 0 -45 3 -55 20 -60 11 -4 18 -11 15 -16 -9 -13 29 -11 43 3 9 9 15 9 24 0 14 -14 94 -16 103 -2 3 6 21 10 39 10 26 0 34 6 44 28 7 16 9 18 6 5 -3 -12 0 -24 6 -28 6 -4 10 7 10 30 0 22 -4 34 -10 30 -6 -4 -10 8 -10 29 0 30 -4 36 -21 36 -11 0 -17 5 -14 10 4 6 -35 10 -110 10 -69 0 -114 -4 -110 -9z"/>
 <path d="M2555 2820 c3 -5 8 -10 11 -10 2 0 4 5 4 10 0 6 -5 10 -11 10 -5 0 -7 -4 -4 -10z"/>
 <path d="M4960 2775 c-7 -9 -11 -18 -8 -20 3 -3 11 1 18 10 7 9 11 18 8 20 -3 3 -11 -1 -18 -10z"/>
 <path d="M3590 2700 c0 -7 3 -10 7 -7 3 4 3 10 0 14 -4 3 -7 0 -7 -7z"/>
 <path d="M3970 2650 c0 -5 5 -10 11 -10 5 0 7 5 4 10 -3 6 -8 10 -11 10 -2 0 -4 -4 -4 -10z"/>
 <path d="M4133 2533 c4 -3 10 -3 14 0 3 4 0 7 -7 7 -7 0 -10 -3 -7 -7z"/>
 <path d="M1822 2198 c2 -6 10 -14 16 -16 7 -2 10 2 6 12 -7 18 -28 22 -22 4z"/>
 </g>
<g id="layer9" fill="#ffffff" stroke="none">
 <path d="M2383 5385 c-1116 -144 -2018 -928 -2298 -1999 -68 -260 -80 -357 -80 -686 0 -261 3 -310 23 -425 101 -586 359 -1086 767 -1490 430 -427 985 -694 1596 -770 162 -20 496 -20 658 0 1118 139 2025 925 2306 1999 68 260 80 357 80 686 0 261 -3 310 -23 425 -101 586 -359 1086 -767 1490 -430 427 -985 694 -1596 770 -151 18 -520 18 -666 0z m852 -1655 c3 -5 23 -10 44 -10 21 0 44 -6 50 -14 7 -8 20 -12 30 -9 9 2 23 -3 30 -11 8 -9 22 -16 32 -16 11 0 19 -4 19 -10 0 -5 9 -10 20 -10 11 0 20 -4 20 -10 0 -5 6 -10 14 -10 16 0 115 -95 135 -130 8 -14 21 -37 28 -52 8 -15 18 -30 24 -33 5 -4 9 -16 9 -29 0 -12 5 -27 11 -33 8 -8 2 -15 -22 -27 -25 -12 -64 -16 -176 -16 l-145 0 -60 58 c-49 47 -68 58 -106 64 -61 10 -59 10 -117 1 -79 -13 -135 -59 -135 -109 0 -7 -4 -14 -9 -16 -10 -3 -15 -36 -13 -80 l2 -28 403 -2 402 -3 3 -109 c2 -66 -1 -113 -8 -120 -5 -5 -10 -25 -10 -42 0 -18 -4 -36 -10 -39 -5 -3 -10 -17 -10 -29 0 -13 -7 -29 -15 -36 -8 -7 -13 -16 -10 -20 3 -5 -2 -15 -10 -23 -8 -9 -15 -23 -15 -31 0 -9 -4 -16 -10 -16 -5 0 -10 -7 -10 -15 0 -31 -184 -193 -212 -187 -3 1 -12 -5 -18 -13 -7 -8 -23 -15 -36 -15 -12 0 -26 -4 -29 -10 -3 -5 -21 -10 -40 -10 -19 0 -37 -4 -40 -10 -8 -13 -272 -13 -280 0 -3 6 -21 10 -39 10 -33 0 -91 23 -101 41 -4 5 -10 7 -15 4 -4 -3 -13 2 -20 10 -7 8 -17 15 -24 15 -15 0 -166 152 -166 167 0 7 -4 13 -9 13 -8 0 -23 32 -25 57 -1 7 -7 18 -14 25 -6 6 -12 20 -12 29 0 10 -4 21 -10 24 -5 3 -10 26 -10 50 0 24 -4 47 -10 50 -6 3 -8 57 -5 133 4 147 13 222 26 222 5 0 9 10 9 23 0 27 44 120 65 137 8 7 15 18 15 24 0 19 112 121 152 140 20 9 40 21 43 26 4 6 10 8 15 5 4 -3 13 2 20 10 7 8 23 15 36 15 12 0 26 5 29 10 3 6 24 10 45 10 21 0 42 5 45 10 4 6 53 10 115 10 62 0 111 -4 115 -10z m1310 0 c3 -5 21 -10 40 -10 19 0 37 -4 40 -10 3 -5 17 -10 30 -10 13 0 26 -4 30 -9 7 -12 64 -41 79 -41 7 0 18 -9 26 -20 8 -11 20 -20 28 -20 17 0 84 -68 78 -79 -3 -5 6 -17 19 -27 14 -10 25 -24 25 -30 0 -15 29 -72 41 -79 5 -4 9 -19 9 -34 0 -15 5 -32 11 -38 6 -6 9 -23 7 -39 l-3 -29 -185 2 c-193 2 -220 6 -220 29 0 16 -17 49 -39 77 -25 31 -72 47 -136 47 -71 0 -115 -18 -135 -55 -7 -14 -17 -25 -22 -25 -4 0 -8 -9 -8 -19 0 -11 -5 -21 -10 -23 -6 -2 -11 -19 -13 -38 -1 -19 -5 -37 -9 -40 -11 -9 -13 -211 -1 -218 6 -4 11 -20 11 -35 -1 -50 68 -167 97 -167 6 0 16 -5 22 -11 13 -13 125 -15 145 -3 7 5 21 13 31 19 17 9 30 28 59 87 4 10 8 25 8 33 0 13 26 15 203 13 l202 -3 3 -44 c2 -24 -2 -49 -7 -54 -6 -6 -11 -21 -11 -33 0 -12 -7 -27 -15 -34 -8 -7 -15 -21 -15 -31 0 -11 -4 -19 -8 -19 -5 0 -15 -12 -23 -27 -17 -35 -117 -133 -134 -133 -7 0 -15 -7 -19 -15 -3 -8 -15 -15 -26 -15 -11 0 -20 -3 -20 -8 0 -9 -72 -32 -99 -32 -11 0 -23 -4 -26 -10 -4 -6 -72 -10 -170 -10 -98 0 -166 4 -170 10 -3 6 -17 10 -31 10 -13 0 -32 4 -42 9 -9 5 -47 23 -83 41 -40 19 -86 52 -116 83 -52 54 -113 138 -113 156 0 6 -9 26 -20 46 -11 20 -20 51 -20 70 0 19 -4 35 -9 35 -5 0 -10 78 -11 180 0 118 3 180 10 180 5 0 10 18 10 39 0 26 5 41 16 45 8 3 13 10 10 15 -8 12 35 93 71 134 17 19 32 39 34 44 7 16 104 89 141 106 20 10 40 22 43 27 3 6 17 10 30 10 13 0 27 5 30 10 3 6 21 10 40 10 19 0 37 5 40 10 4 6 57 10 125 10 68 0 121 -4 125 -10z m-3756 -21 c55 -17 104 -42 122 -61 9 -10 21 -18 27 -18 15 0 172 -152 172 -166 0 -6 9 -19 20 -29 11 -10 20 -25 20 -34 0 -9 9 -23 20 -31 12 -9 18 -21 14 -32 -3 -12 0 -18 10 -18 19 0 21 -17 3 -34 -15 -16 -63 -15 -60 0 1 6 -14 26 -32 44 -19 19 -35 39 -35 44 0 18 -107 126 -125 126 -29 0 -43 -25 -51 -88 -5 -52 -4 -63 10 -68 11 -4 15 -13 10 -26 -3 -11 1 -27 10 -37 9 -10 14 -29 11 -49 -3 -23 0 -32 10 -32 11 0 15 -12 15 -39 0 -22 5 -43 10 -46 6 -3 10 -17 10 -30 0 -13 5 -27 10 -30 6 -3 10 -24 10 -45 0 -21 5 -40 10 -42 6 -2 11 -19 13 -38 1 -19 8 -41 16 -49 8 -9 11 -27 8 -48 -4 -24 -2 -33 9 -33 9 0 14 -11 14 -34 0 -19 5 -38 10 -41 6 -3 10 -21 10 -40 0 -19 5 -37 10 -40 6 -3 10 -19 10 -35 0 -16 5 -32 10 -35 6 -3 10 -21 10 -40 0 -19 5 -37 11 -40 6 -4 8 -22 4 -46 -5 -32 -4 -39 9 -39 12 0 14 -7 10 -30 -5 -24 -3 -30 10 -30 13 0 15 -7 10 -40 -5 -31 -3 -40 8 -40 11 0 14 -10 13 -35 -1 -20 -5 -38 -8 -42 -10 -9 -191 -3 -201 7 -6 6 -33 10 -61 10 -28 0 -56 5 -63 12 -7 7 -33 11 -60 9 -34 -2 -52 2 -61 13 -8 10 -22 13 -41 10 -15 -3 -55 2 -89 12 -57 17 -61 20 -61 49 0 30 1 30 54 31 44 1 59 6 80 27 23 23 26 35 26 91 0 37 -5 68 -11 72 -7 4 -9 23 -5 50 4 35 3 44 -10 44 -12 0 -14 7 -8 35 5 29 3 35 -11 35 -14 0 -16 6 -12 29 4 19 1 33 -8 41 -9 7 -12 23 -8 45 4 26 2 36 -10 40 -10 5 -14 17 -12 41 2 23 -2 37 -12 43 -11 5 -14 17 -11 35 4 18 1 26 -8 26 -10 0 -14 13 -14 39 0 22 -4 43 -10 46 -5 3 -10 17 -10 30 0 13 -4 27 -10 30 -5 3 -10 21 -10 40 0 19 -4 37 -10 40 -5 3 -10 18 -10 33 0 15 -7 36 -15 46 -8 11 -15 34 -15 52 0 18 -4 36 -10 39 -5 3 -10 46 -10 94 0 67 4 92 15 101 8 7 15 18 15 24 0 14 36 49 60 60 8 3 29 15 45 25 35 23 128 27 184 10z m1610 -1 c6 -7 16 -14 22 -14 5 -1 14 -2 19 -3 6 -1 10 -47 10 -116 0 -128 8 -113 -75 -130 -16 -3 -38 -7 -47 -9 -25 -3 -68 -46 -68 -67 0 -9 -6 -19 -12 -21 -18 -6 -23 -584 -6 -594 6 -4 42 -6 80 -5 82 3 108 -4 108 -29 0 -10 5 -22 10 -25 13 -8 13 -108 1 -120 -5 -6 -11 -23 -13 -40 l-3 -30 -92 -3 c-92 -3 -93 -3 -93 -28 0 -13 -7 -41 -16 -62 -11 -27 -15 -64 -13 -136 2 -57 -1 -101 -7 -102 -5 -1 -28 -7 -51 -14 -33 -10 -46 -10 -57 -1 -10 9 -20 9 -40 0 -20 -9 -32 -9 -51 -1 -14 7 -62 12 -105 12 l-80 0 1 128 c1 70 6 132 11 138 5 7 4 22 -3 37 -11 24 -18 26 -83 29 l-71 3 -3 114 c-2 85 1 117 10 123 7 4 42 7 76 7 46 -2 66 2 73 12 5 8 10 124 11 259 1 135 2 261 3 282 0 20 3 40 8 44 4 4 7 38 7 76 0 39 4 68 10 68 6 0 10 18 10 39 0 26 5 41 16 45 8 3 13 10 9 16 -7 12 59 80 79 80 7 0 16 7 20 15 3 9 18 15 36 15 16 0 30 5 30 10 0 16 313 13 329 -2z m-781 -700 l3 -88 -158 0 -158 0 2 87 c1 49 2 89 2 91 1 1 70 1 154 0 l152 -3 3 -87z m-398 -1105 c35 -16 78 -63 106 -119 31 -61 31 -132 1 -195 -26 -54 -81 -119 -100 -119 -8 0 -17 -3 -20 -6 -11 -11 -187 -6 -201 5 -7 6 -15 8 -18 5 -10 -10 -98 91 -98 113 0 12 -5 25 -10 28 -12 8 -11 123 2 131 4 3 8 12 8 20 0 9 13 35 30 59 43 63 104 90 200 90 41 -1 86 -6 100 -12z"/>
 <path d="M2901 2967 c-10 -26 -3 -77 10 -77 5 0 9 -7 9 -15 0 -36 73 -125 102 -125 11 0 33 -7 50 -16 28 -14 36 -14 99 1 60 15 75 23 109 63 22 24 40 53 40 63 0 10 5 21 10 24 14 9 13 78 -2 93 -9 9 -70 12 -215 12 -203 0 -204 0 -212 -23z"/>
 </g>

</svg>