<!DOCTYPE svg PUBLIC "-//W3C//DTD SVG 20010904//EN" "http://www.w3.org/TR/2001/REC-SVG-20010904/DTD/svg10.dtd">
<svg version="1.0" xmlns="http://www.w3.org/2000/svg" width="1600px" height="68px" viewBox="0 0 16000 680" preserveAspectRatio="xMidYMid meet">
<g id="layer1" fill="#ffffff" stroke="none">
 <path d="M0 340 l0 -340 33 0 c17 0 95 11 171 25 77 14 156 25 175 25 20 0 115 11 211 24 212 30 557 68 860 96 386 34 799 69 950 80 475 33 614 42 980 65 223 13 482 27 575 30 94 3 287 12 430 20 143 8 436 19 650 25 215 5 509 14 655 19 734 27 1316 33 2835 28 864 -3 1689 -10 1835 -16 146 -5 436 -14 645 -20 690 -20 1301 -47 1875 -83 190 -11 422 -24 515 -28 321 -14 1524 -115 1920 -162 99 -11 223 -24 275 -29 52 -4 154 -17 227 -28 72 -12 143 -21 157 -21 l26 0 0 315 0 315 -8000 0 -8000 0 0 -340z"/>
 </g>

</svg>